<svg version="1.1" xmlns="http://www.w3.org/2000/svg" viewBox="0 0 2586.666768391926 626.6166946608987" width="2586.666768391926" height="626.6166946608987">
  <!-- svg-source:excalidraw -->
  
  <defs>
    <style class="style-fonts">
      @font-face {
        font-family: "Virgil";
        src: url("https://file%2B.vscode-resource.vscode-cdn.net/c%3A/Users/home/.vscode/extensions/pomdtr.excalidraw-editor-3.5.1/public//dist/excalidraw-assets/Virgil.woff2");
      }
      @font-face {
        font-family: "Cascadia";
        src: url("https://file%2B.vscode-resource.vscode-cdn.net/c%3A/Users/home/.vscode/extensions/pomdtr.excalidraw-editor-3.5.1/public//dist/excalidraw-assets/Cascadia.woff2");
      }
    </style>
  </defs>
  <rect x="0" y="0" width="2586.666768391926" height="626.6166946608987" fill="#ffffff"></rect><g stroke-linecap="round" transform="translate(1625.102482386997 235.79118183680959) rotate(0 269.16671752929676 125.83332061767575)"><path d="M0 0 C0 0, 0 0, 0 0 M0 0 C0 0, 0 0, 0 0 M-1.77 6.03 C1.86 4.24, 1.98 4.61, 6.27 1.77 M-0.79 6.34 C1.84 3.49, 3.96 1.99, 4.44 -0.11 M-0.22 15 C0.72 8.32, 8.13 4.11, 10.13 2.69 M-0.86 11.68 C2.97 8.25, 7.99 5.55, 10.33 -0.17 M3.18 17.51 C3.11 16.29, 9.51 10.77, 13.05 -1.97 M-0.52 16.64 C3.94 14.29, 7.25 11.63, 13.87 0.45 M-0.04 23.96 C8.74 14.31, 14.97 1.74, 22.94 -2.03 M-1.37 25.1 C5.33 17.53, 9.46 10.28, 20.36 0.85 M-1.5 26.72 C8.88 23.62, 9.68 18.04, 30.22 -2.25 M0.85 30.42 C7.67 20.58, 14.97 15.92, 24.73 -0.52 M-3.18 36.59 C9.13 24.57, 24.47 15.61, 33.62 0.36 M0.36 35.6 C7.78 23.93, 18.41 13.34, 31.32 0.61 M-1.51 43.8 C8.2 25.07, 24.26 16.74, 36.79 -2.76 M2.1 44.39 C10.83 34.29, 15.56 21.96, 35.56 1.31 M-3.32 50.29 C18.93 32.33, 33.94 10.78, 39.6 0.23 M-1.26 48.61 C11.3 32.46, 22.85 21.81, 44.22 -1.62 M-3.27 54.41 C16.59 40.29, 33.13 23.55, 50.84 -2.34 M-1.68 55.83 C15.91 37.15, 32.23 17.61, 49.19 -0.53 M-3.05 62.98 C18.55 37.03, 38.91 12.5, 55.48 2.25 M1.95 60.43 C18.09 37.26, 38.86 19.25, 51.66 -2.05 M3.15 67.99 C15.15 53.96, 23.61 40.82, 59.44 -0.82 M-0.55 67.3 C11.9 52.94, 25.6 37.67, 59.95 0.02 M-3.29 70.85 C16.23 57.05, 33.43 37.89, 64.83 2.08 M-1.67 71.1 C15.27 58.29, 27.72 41.73, 65.7 -0.39 M-1.37 82.68 C22.05 51.07, 43.55 29.42, 66.68 0.98 M0.88 79.56 C19.15 55.46, 39.39 33.26, 69.68 1.48 M4.05 85.05 C26.71 46.8, 61 17.14, 76.22 2.39 M-0.29 85.16 C17.83 64.01, 37.41 41.74, 73.95 0.14 M3.09 89.93 C28.41 58.82, 51.92 35.96, 77.62 1.24 M-0.45 92.17 C18.97 71.11, 35.95 52.77, 79.71 -1.1 M3.38 100.52 C31.33 67.07, 52.93 33.76, 83.24 -3.13 M0.78 96.4 C33.99 58.06, 64.49 22.15, 83.49 0.84 M-1.89 103.4 C32.77 65.6, 67.55 34.32, 90.36 -2.89 M0.53 104.41 C27.05 69.97, 53.86 40.14, 90.89 -0.18 M-1.91 108.91 C34.24 68.66, 64.73 31.94, 96.46 2.18 M1.67 108.84 C25.47 81.79, 53.49 50.64, 96.9 -0.51 M-1.72 111.77 C23.85 84.53, 49.88 53.71, 103.96 0.77 M0.41 116.08 C26.29 88.66, 53.36 58.24, 99.55 0.27 M-1.4 119.17 C39.21 78.98, 71.98 36.73, 103.46 1.99 M0.07 121.3 C30.98 86.44, 65.39 50.63, 108.26 -1.62 M2.5 127.46 C41.89 79.41, 89.17 26.43, 110.51 -0.6 M-1.36 128.21 C25.3 100.31, 47.65 73.89, 109.52 0.8 M1 130.44 C41.59 83.35, 88.73 37.97, 116.17 3.73 M1.82 132.29 C35.38 92.12, 73.74 47.43, 114.52 1.06 M-3.31 143.63 C29.71 98.31, 68.66 59.51, 119.08 3.17 M0.09 140.08 C40.83 90.07, 82.68 44.08, 120.15 -1.56 M2.36 148.92 C31.77 112.27, 66.48 76.08, 125.47 3.57 M0.25 144.87 C32.8 108.99, 67.03 71.08, 126.06 1.3 M-2.02 154.47 C34.07 114.16, 67.55 72.55, 131.84 -2.48 M-0.71 153.6 C27.7 121.45, 53.81 91.1, 134.08 -1.14 M0.06 156.79 C54.56 98.19, 106.39 35.92, 137.31 -0.91 M-0.43 159.26 C48.66 100.35, 101.59 40.2, 138.67 -0.27 M0.24 161.77 C32.98 130.21, 64.2 93.46, 143.55 -1.93 M-1.23 163.17 C38.88 122.76, 74.6 79.22, 142.32 -0.26 M2.23 171.76 C52.85 112.7, 102.72 53.14, 150.76 1.3 M1.13 170.27 C28.03 136.55, 59.55 101.79, 148.78 0.38 M-0.13 178.84 C38.3 139.81, 70.19 99.68, 151.2 -3.39 M0.27 177.84 C51.54 119.1, 100.35 61.57, 153.78 -0.07 M1.11 183 C47.51 121.25, 99.93 65.82, 159.61 -1.72 M0.69 182.76 C46.48 128.14, 96.24 74.54, 159.66 0.32 M0.19 191.4 C53.48 127.24, 102.13 74.54, 165.85 -1.64 M0.95 190.37 C44.44 135.64, 92.41 83.68, 166 -1.32 M-2.13 192.59 C69.68 118.49, 135.37 45.77, 171.98 -1.71 M1.11 194.21 C37.87 146.4, 79.99 101.43, 170.5 0.65 M0.47 202.89 C52.88 145.52, 102.54 87.55, 172.67 0.79 M-0.14 202.11 C67.96 125.73, 135.4 47.94, 176.41 -1.05 M0.57 207.82 C59.2 142.38, 110.89 77.05, 177.12 1.57 M1.4 205.91 C40.4 160.49, 81.48 114.59, 180.2 -0.4 M-0.96 211.58 C70.84 138.34, 136.55 59.96, 183.93 0.9 M0.05 213.67 C73.01 131.39, 143.5 50.08, 185.44 0.6 M-1.73 217.02 C65.79 147.21, 122.03 79.69, 190.43 1.53 M-0.33 220.12 C55.15 156.25, 109.54 94.34, 190.45 -0.96 M1.65 226.34 C60.43 158.35, 118.68 89.14, 199.25 1.24 M1.48 225.28 C76.38 133.74, 154.76 46.12, 196.04 0.95 M1.44 230.35 C60.61 160.38, 117.54 94.67, 202.81 -2.44 M-1.3 231.22 C53.73 171.17, 108.77 112.1, 202.34 0.93 M2.6 237.08 C49.23 174.9, 99.47 117.53, 207.61 -2.33 M0.87 237.5 C81.05 143.16, 160.55 50.3, 207.59 0.86 M1.33 241.2 C50.6 179.9, 107.32 116.39, 212.68 -0.41 M-1.23 245.09 C48.29 184.86, 100.54 124.57, 210.89 -1.04 M2.49 251.6 C70.65 168.76, 136.24 92.45, 216.63 2.31 M-0.1 249.16 C75.46 156.91, 156.22 67.6, 216.47 -1.29 M4.33 251.04 C52.11 201.35, 100.64 142.2, 224.72 -0.61 M2.29 253.5 C71.81 167.13, 146.46 81.15, 222.19 -1.27 M6.98 254.2 C92.96 154.53, 176.66 53, 228.27 -1.37 M6.76 253.66 C81 175.25, 149.69 92.54, 227.09 -1.35 M11.01 254.96 C88.7 165.19, 168.9 75.21, 233.23 -0.44 M13.32 254.48 C72.02 187.72, 128.06 124.04, 233.46 0.3 M17.27 252.29 C90.45 165.65, 164.99 83.05, 239.15 -2.24 M18.97 254.66 C88.17 174.15, 154.39 95.46, 237.28 0.39 M23.63 254.23 C69.67 200.84, 118.28 151.59, 243.95 1.9 M23.25 252.77 C97.36 161.07, 174.34 72.48, 244.44 -1.16 M29.72 251.85 C74.02 200.03, 120.49 143.71, 248.65 2.33 M28.21 252.86 C112.13 153.24, 196.09 54.99, 249.26 -0.94 M32.14 255.7 C107.68 171.56, 176.46 91.26, 252.57 2.17 M34.34 254.47 C84.12 202.81, 129.16 148.51, 254.52 0.6 M36.66 252.06 C85.98 202.3, 131.6 142.47, 260.2 0.42 M39.94 253.93 C96.59 192.59, 150.88 129.13, 260.24 0.51 M43.33 254.77 C127.96 156.33, 217.95 55.27, 266.21 0.81 M45.79 252.52 C92.37 198.43, 142.05 140.25, 265.45 -1.28 M47.91 256.07 C127.8 166.44, 207.05 77.07, 267.78 0.23 M49.16 255.04 C99.59 201.3, 144.26 149.09, 270.44 -0.63 M53.88 251.55 C125.42 177.96, 198.59 98.72, 276.51 -2.41 M56.5 253.69 C105.01 193.4, 158.61 133.52, 275.92 0.11 M57.78 255.58 C144.33 154.87, 227.83 59.98, 282.23 -1.51 M61.32 253.67 C101.14 200.44, 146.43 150.44, 279.76 1.4 M66.54 250.87 C137.9 169.62, 210.6 86.59, 286.54 2.41 M64.99 254.3 C127.76 181.67, 191.45 110.93, 287.01 -1.43 M72.07 252.39 C124.2 186.25, 178.84 126.31, 293.5 2.06 M70.76 253.06 C157.25 150.89, 245.1 51.52, 290.45 -0.79 M73.96 251.51 C138.13 189.6, 192.78 122.15, 294.68 -2.47 M77.57 253.7 C129.69 189.26, 186.06 123.51, 296.76 -0.98 M81.05 253.01 C139.98 183.68, 200.78 115.1, 302.98 0.96 M82.24 254.08 C164.99 153.02, 250.38 55.98, 301.72 -0.77 M85.62 251.55 C154.03 178.49, 221.78 95.85, 305.35 2.26 M86.7 254.28 C138.08 197.2, 190.34 136.32, 308.25 -1.39 M91.85 252.51 C164.97 166.77, 241.44 80.48, 312.75 0.69 M92.11 252.54 C176.06 160.18, 259.41 67.31, 312.44 0.14 M95.5 253.81 C159.16 184.19, 220.85 113.25, 318.28 -2.48 M98.01 253.36 C178.15 161.36, 258.35 69.55, 318.86 0.25 M101.5 256.05 C176.11 166.91, 246.7 89.31, 325.56 0.69 M101.8 252.68 C149.08 202.59, 193.54 150.23, 323.87 0.95 M109.04 255.04 C175.44 176.82, 244.21 101.65, 328.46 1.27 M108.69 254.02 C194.25 156.1, 277.88 56.89, 328.29 -0.94 M113.07 251.96 C168.66 189, 224.74 126.81, 334.05 -0.27 M112.35 253.68 C191.88 166.69, 266.54 77.94, 334.19 1.01 M121.6 251.31 C190.08 172.33, 256.45 91.21, 336.96 -1.51 M118.29 254.24 C179.56 181.02, 245.98 108.34, 338.64 -1.39 M124.93 254.84 C203.17 163.97, 282.21 70.58, 342.32 1.29 M124.51 252.37 C188.41 182.52, 253.33 109.12, 343.98 0.02 M129.17 254.19 C185.94 192.68, 233.6 135.41, 350.24 1.14 M128.73 252.37 C190.69 183.86, 248.26 114.41, 348.28 0.87 M136.13 251.68 C180.72 193.71, 228.54 138.51, 355.12 -2.59 M135.97 254 C208.89 167.81, 280.84 80.9, 356.15 0.69 M138.56 253.76 C206.34 176.73, 279.39 92.66, 361.25 2.11 M140.91 253.25 C216.4 166, 294.3 76.26, 359.94 0.47 M146.39 255.71 C190.64 193.87, 237.6 138.75, 367.13 0.99 M144.1 253.37 C197.53 191.65, 250.15 130.3, 365.21 0.7 M148.45 253.36 C204.08 192.11, 257.46 131.25, 372.42 1.27 M149.31 254.36 C235.44 156.09, 322.41 57.17, 371.34 0.05 M156.09 252.58 C216.17 177.73, 278.13 106.41, 379.07 -2.65 M156.7 253.71 C236.64 164.22, 316.66 74.22, 376.1 0.75 M161.59 252.5 C205.43 201.63, 253.88 146.58, 382.11 2.43 M162.25 253.13 C219.12 186.65, 277.8 119.82, 380.51 -0.87 M166.29 254.19 C241.71 163.88, 319.88 77.49, 386.96 -1.97 M167.77 253.19 C230.11 182.62, 291.92 113.06, 388.03 -0.83 M171.31 254.67 C226.91 191.23, 279.03 130.55, 389.38 -2.04 M172.22 254.64 C229.28 184.74, 287.02 116.53, 393.23 0.27 M178.74 255.6 C237.67 183.25, 296.97 112.01, 398.25 -2.22 M176.35 253.02 C229.65 200.22, 278.45 142.25, 397.18 0.03 M182.37 251.9 C253.48 168.85, 322.41 87.29, 404.7 1.11 M182.13 253.52 C253.88 169.38, 328.17 84.03, 401.49 0.95 M190.44 251.21 C266.68 160.42, 345.3 68.61, 410.3 1.42 M186.55 252.05 C235.26 197.06, 285.77 139.07, 407.5 -0.34 M194.82 251.71 C278.05 155.9, 365.18 51.45, 412.32 -2.48 M191.87 252.82 C237.26 199.8, 286.34 143.59, 413.08 -0.97 M199.11 250.89 C246.57 195.79, 296.67 134.81, 421.15 2.33 M199.43 252.15 C276.14 160.47, 352.77 70.98, 419.88 0.11 M204.01 255.58 C287.85 151.04, 377.3 52.1, 424.06 -0.91 M203.69 253.25 C266.18 180.11, 329.55 105.58, 424.7 0.75 M208.5 253.07 C276.61 175.5, 340.57 98.12, 429.5 -1.39 M210.33 252.84 C273.46 178.95, 338.38 104.38, 429.48 1.05 M216.72 253.5 C263 199.26, 316.09 144.02, 436.27 0.88 M214.12 253.16 C294.31 162.52, 371.37 74.3, 435.38 -0.76 M217.64 255.52 C307.36 156.11, 390.71 64.19, 440.11 -1.55 M219.66 253.98 C301.61 161.07, 384.45 67.24, 439.25 -0.17 M224.24 251 C304.77 165.29, 381.41 77.46, 445.98 2.67 M224.71 253.91 C278.71 195.19, 331.51 135.56, 443.86 -1.26 M231.64 255.33 C276.82 200.04, 321.27 145.51, 453.05 -1.4 M230.15 253.08 C299.22 173.19, 364.94 99.26, 451.75 -0.49 M234.72 252.89 C289.75 185.16, 344.05 123.13, 456.26 -1.82 M234.03 254.52 C320.06 153.38, 405.76 54.54, 456.57 1.12 M240.12 254.28 C314.18 161.93, 395.31 71.76, 463.65 0.53 M241.54 253.36 C300.55 187.55, 359.28 119.34, 461.15 0.77 M246.18 252.55 C321.5 165.56, 395.13 80.54, 465.5 2.01 M245.66 254.34 C311.5 182.37, 375.49 108.33, 466.17 0.52 M248.87 254.26 C320.36 174.98, 394.82 94.99, 472.65 0.39 M249.86 253.74 C309.24 186.57, 366.94 122.51, 471.4 0.03 M257.33 253.48 C302.5 192.74, 353.6 137.97, 478.11 1.14 M257.46 253.07 C309.48 194.09, 361.86 131.44, 475.75 -0.51 M260.94 254.22 C349.9 155.31, 436.94 53.6, 483.43 2.18 M260.85 253.93 C323.25 181.42, 384.53 110.07, 482.69 -0.16 M267.55 253.08 C330.31 185.65, 393.55 109.1, 488.43 -1.96 M266.98 253.42 C351.44 159.54, 433.84 64.54, 488.05 0.91 M272.69 254.69 C331.05 192.27, 385.59 128.53, 492.71 0.7 M272.58 253.53 C357.02 155.62, 438.71 60.05, 492.91 -0.02 M276.89 253.51 C336.17 181.89, 401.16 111.67, 496.85 -0.1 M276.8 253.06 C330.8 195.16, 381.53 136.83, 497.42 -0.07 M281.82 254.76 C352.62 170.98, 425.27 83.75, 503.89 0.12 M283.4 254.4 C331.1 197.93, 379.59 142.77, 502.96 -0.21 M286.08 250.83 C362.15 169.31, 434.55 86.28, 509.81 2.45 M289.15 252.7 C373.01 151.09, 461.09 51.31, 508.63 0.12 M292.09 252.89 C349.75 186.92, 404.95 124.39, 515.69 -1.48 M294.06 253.39 C357.93 179.41, 420.27 107.03, 513.4 -1.03 M296.52 251.22 C376.16 163.77, 449.6 74.72, 518.27 0.77 M297.88 253.36 C355.82 183.68, 413.9 115.15, 520.72 -0.02 M302.54 252.2 C350.37 200.61, 398.57 147.86, 522.11 -1.28 M304.96 253.04 C368.84 178.57, 435.38 102.92, 524.46 0.24 M310.27 254.79 C355.47 205.89, 400.71 155.3, 530.04 0.02 M309.94 253.73 C372.64 180.85, 436.41 109.85, 529.7 1.06 M312.88 255.18 C396.84 162.26, 472.79 74.52, 533.95 -2.54 M313.44 253.55 C396.03 157.13, 480.61 58.63, 536.02 1.26 M319.31 255.62 C395.21 161.39, 475.62 75.41, 541.51 0.8 M321.19 252.83 C380.59 184.44, 440.13 117.05, 540.74 1.35 M323.47 252.83 C378.78 192.55, 434.68 133.89, 540.68 8.42 M324.62 252.74 C393.2 176.4, 462 93.85, 539.03 6.83 M332.53 252.39 C377.11 197.42, 427.18 144.88, 537.68 10.51 M329.76 252.67 C399.61 173.1, 467.99 92.88, 538.54 12.08 M335.45 251.59 C414.68 155.72, 496.36 63.39, 538.88 20.84 M335.16 254.25 C397.06 178.46, 459.59 109.43, 538.75 19.95 M343.14 254.2 C393.79 195.89, 442.15 142.96, 537.65 27.63 M341.79 253 C414.08 175.27, 483.68 92.01, 541.01 25.38 M345 252.1 C398.33 186.81, 456.65 119.52, 542.33 33.47 M346.96 253.77 C411.7 178.02, 476.6 106.48, 540.09 32.53 M350.15 252.69 C420.94 169.93, 492.42 93.75, 541.57 37.6 M351.87 253.91 C403.35 190.9, 454.89 134.08, 539.68 38.76 M354.59 254.29 C393.45 206.96, 427.88 166.55, 541.69 46.54 M358.67 252.81 C404.26 197.88, 449.79 145.25, 540.82 44.22 M365.78 256.23 C426.05 177.28, 484.23 105.06, 537.1 48.76 M362.8 252.74 C407.46 205.35, 449.82 160.04, 539.41 50.43 M367.89 250.9 C431.43 184.56, 492.67 109.33, 540.56 58.65 M368.35 253.55 C422.31 188.71, 479.68 122.12, 538.75 57.34 M371.68 254.9 C431.3 191.8, 482.73 128.4, 539 61.01 M373.46 254.12 C408.69 212.77, 443.63 171.31, 540.96 62.93 M376.69 252.61 C412.02 217.27, 447.02 177.41, 537.32 67.35 M379.97 252.3 C419.27 208.18, 459.44 163.57, 540.87 68.36 M383.39 254.3 C418.28 216.39, 452.66 180.3, 542.66 75.85 M384.25 254.64 C417.67 209.3, 453.57 170.44, 539.25 75.31 M386.12 250.31 C437.91 200.55, 484.32 141.06, 537.12 83.43 M390.84 252.06 C440.22 200.09, 487.09 142.71, 540.42 81.28 M396.51 255.48 C433.58 210.35, 469.3 164.57, 537.5 86.34 M393 253.37 C434.7 204.05, 477.9 158.5, 539.22 86.08 M402.93 253.86 C435.08 216.23, 473.15 169.86, 541.73 94.76 M400.93 253.22 C437.7 205.75, 482 157.06, 538.39 91.64 M407.69 250.74 C453.7 199.13, 494.93 144.68, 541.01 98.01 M404.72 252.4 C434.21 217.8, 466.89 179.89, 538.88 97.58 M414.18 251.56 C462.64 194.74, 505.15 140.25, 537.12 103.56 M409.76 252.93 C457.76 202.75, 501.78 151.81, 540.63 104.59 M413.91 252.44 C450.97 208.88, 492.24 168.17, 536.17 109.43 M413.41 254.61 C463.43 200.79, 513.48 144.07, 538.48 109.88 M419.62 252.37 C469.82 200.12, 510.94 148.9, 540.06 118.63 M420.2 252.33 C452.09 224.1, 479.09 193.73, 538.64 118.22 M428.57 251.14 C458.35 215.79, 497.67 173.13, 538.13 123.91 M427.76 251.98 C452.09 226.19, 475.19 198.42, 540.21 121.5 M430.26 257 C467.01 206.51, 512.02 164.47, 537.93 132.44 M431.03 253.19 C474.14 205.61, 514.46 156.33, 538.6 130.41 M435.1 250.64 C472.86 209.65, 508.54 164.95, 537.93 137.84 M436.08 252.4 C459.61 226.1, 484.78 196.02, 539.36 133.4 M441.68 257.15 C461.91 233.22, 484.95 207.26, 542.15 144.9 M440.31 253.8 C467.76 226.07, 493.65 198.05, 537.69 140.46 M449.57 254.09 C466.27 227.82, 486.01 211.24, 536.15 145.87 M446.21 252.39 C468.01 231.32, 492.04 208.37, 539.53 146.35 M450.47 251.46 C478.44 221.32, 510.65 186.86, 543.11 152.68 M453.63 252.93 C476.75 221.66, 503.77 196.19, 538.55 153.9 M457.06 255.69 C472.78 232.84, 495.1 214.7, 542.38 157.69 M457.5 252.99 C486.63 221.41, 515.3 187.65, 539.79 157.66 M462.19 253.63 C490.2 218, 521.6 189.33, 538.24 161.71 M464.09 253.88 C493.79 217.48, 524.74 186.78, 541.37 167.02 M467.66 256.59 C486.43 234.14, 500.32 215.93, 542.52 174.72 M468.77 251.74 C481.55 235.94, 496.96 218.04, 538.09 173.87 M475.43 252.31 C494.41 230.31, 514.9 205.53, 542.61 176.15 M472.26 252.45 C492.84 234.33, 507.11 217.06, 538.47 175.87 M476.43 256.97 C504.86 233.26, 524.87 206.34, 541.48 187.13 M478.37 254.69 C492.97 236.53, 508.99 220.23, 537.81 183.75 M481.11 251.94 C504.26 234.16, 521.78 215.43, 540.3 191.19 M485.58 253.66 C497.74 238.59, 509.96 222.34, 541.71 188.98 M487.46 256.01 C498.64 243.49, 515.92 225.74, 543.17 194.33 M488.12 252.36 C503.5 235.26, 518.42 219.8, 539.89 194.85 M497.11 253.67 C510.4 239.27, 525.05 221.37, 539.73 201.74 M492.95 252.81 C507.81 238.74, 520.19 224.3, 537.75 204.15 M497.83 251.86 C513.49 239.18, 524.96 223.07, 537.17 210.01 M499.37 251.81 C510.93 243.87, 518.87 233.48, 541.41 206.45 M508.36 251.95 C514.84 245.48, 521.73 228.56, 536.29 215.47 M504.79 251.94 C512.88 244.64, 519.69 234.16, 538.75 213.4 M513.62 249.72 C518.75 247.92, 525.24 240.62, 538.07 222.83 M512.95 252.56 C523.55 242.52, 531.87 226.36, 538.97 218.36 M517.45 255.43 C520.91 251.07, 524.98 240.83, 540.41 225.3 M515.69 252.83 C523.04 246.84, 528.89 238.76, 538.38 227.52 M517.89 253.74 C530.61 246.37, 535.58 242.5, 536.78 229.23 M521.19 254.67 C526.31 247.28, 532.6 242.59, 539.98 231.6 M527.94 255.78 C530.73 248.51, 534.74 244.76, 540.17 238.41 M527.73 253.78 C532.61 248.69, 537.27 242.63, 538.48 237.07 M533.66 252.13 C533.82 249.33, 537.6 246.58, 541.55 245.79 M532.11 254.09 C533.04 252.14, 535.3 249.8, 540.54 245.3" stroke="#ccc" stroke-width="0.5" fill="none"></path><path d="M1.18 0.14 C151.12 -1.54, 304.84 -1.37, 539.16 1.04 M-0.38 0.65 C158.72 2.73, 317.98 2.19, 538.33 -0.19 M535.89 -0.81 C540.04 83.75, 543.49 165.4, 535.42 253.52 M539.06 0.59 C542.85 93.25, 543.01 184.34, 539.53 251.55 M538.24 251.91 C385.41 254.07, 234.98 254.15, 1.06 252.41 M538.21 251.52 C343.55 250, 150.04 249.26, 0.16 251.34 M1.34 252.17 C1.54 182.72, 5.49 115.76, -2.25 3.08 M1.61 252.18 C-3.92 198.56, -3.37 143.75, -0.14 -1.02" stroke="#000000" stroke-width="1" fill="none"></path></g><g transform="translate(1811.5310647147035 336.74360820225314) rotate(0 97.90925598144531 28.917611610562602)"><text x="0" y="0" font-family="Virgil, Segoe UI Emoji" font-size="46.26817857690015px" fill="#000000" text-anchor="start" style="white-space: pre;" direction="ltr" dominant-baseline="text-before-edge">Peliculas</text></g><g stroke-linecap="round" transform="translate(445.25410897391134 247.15473011561818) rotate(0 269.1667175292968 125.83332061767575)"><path d="M0 0 C0 0, 0 0, 0 0 M0 0 C0 0, 0 0, 0 0 M-0.94 6.99 C0.08 5.33, 2.42 3.54, 3.69 -0.19 M-0.27 6.83 C0.46 4.66, 2.8 4.51, 5.56 1.09 M-2.54 9.36 C-0.23 5.73, 4.13 5.47, 8.15 -1.73 M0.98 13.34 C1.16 7.84, 3.98 5.51, 9.81 -1.62 M1.93 20.92 C8.33 13.05, 8.12 6.45, 17.5 -3.54 M1.64 20.24 C4.79 12.48, 8 9.87, 13.99 -1.4 M-1.19 22.91 C10.15 20.96, 15.77 8.47, 23.09 0.11 M-0.91 24.75 C8.97 16.68, 15.38 5.73, 20.04 -1.34 M-2.27 33.47 C10.24 23.16, 13.59 11.53, 26.65 -3.43 M0.66 31.57 C8.38 22.44, 17.28 10.29, 24.35 0.56 M0.5 40.59 C6.45 28.93, 15.45 19.94, 32.72 -4.01 M-1.85 35.6 C7.67 25.2, 17.81 17.57, 31.85 1.47 M0.52 41.68 C10.4 29.95, 26.33 10.67, 36.77 3 M1.09 41.51 C13.72 24.4, 27.34 9.06, 37.57 0.35 M-1.25 51.89 C8.72 36.53, 22.12 24.87, 40.48 0.64 M1.75 47 C13.55 34.58, 27.01 17.49, 42.88 0.95 M2.37 56.74 C8.38 41.6, 27.47 23.71, 48.44 2.42 M-1.23 54.57 C20.96 34.7, 36.87 12.37, 49.24 -1.23 M-2.51 64.24 C20.12 43.19, 31.5 21.62, 51.45 -3.75 M-1.16 62.5 C11.39 45.52, 25.21 30.47, 54.47 0.13 M3.72 65.56 C27.49 38.94, 45.02 16.5, 55.23 -3.5 M0.38 68.57 C15.65 46.73, 37.63 23.9, 58.45 1.11 M2.28 75.31 C20.44 49.3, 35.27 32.2, 63.7 -4.03 M-1.5 73.38 C16.76 51.67, 38.9 29.23, 63.45 -1.44 M-0.04 75.81 C17.84 60.35, 30.43 46.3, 67.72 1.91 M-1.92 79.53 C21.51 49.52, 49.29 23.08, 67.79 1.14 M3.72 81.78 C21.29 62.01, 44.94 38.25, 76.33 -4.01 M1.31 83.43 C14.14 67.1, 29 49.89, 74.16 0.27 M1.49 88.41 C22.45 70.62, 37.13 47.14, 81.5 2.32 M1.53 90.25 C27.57 57.9, 52.38 26.72, 79.33 1.17 M0.72 96.06 C28.96 61.81, 56 31.12, 81.4 -0.53 M-1.29 97.69 C26.96 67.57, 52.47 39.05, 86.43 -2.19 M-3.58 102.54 C25.3 73.5, 55.28 41.7, 93.14 -3.59 M0.58 103.25 C31.71 69.17, 56.93 35.55, 90.67 -0.02 M3.18 111.34 C36.75 65.32, 70.51 27.39, 96 0.58 M-0.41 111.45 C34.23 67.07, 68.85 28.66, 95.6 0.21 M-2.2 116.37 C21.2 94.84, 45.24 68.67, 100.21 -2.15 M0.56 113.59 C35.66 73.01, 73.52 29.24, 98.89 0.86 M4.01 122.02 C31.14 80.18, 63.18 39.86, 106.19 0.51 M-1.62 122.75 C39.24 78.39, 80.34 32.98, 104.51 1.02 M3.06 127.83 C23.31 104.31, 44.29 78.81, 109.3 3.31 M1.65 129.56 C18.65 102.37, 44.03 74.68, 112.57 -0.4 M-2.21 136.78 C25.97 106.58, 52.67 70.76, 114.42 0.17 M1.67 133.38 C39.9 91.97, 77.88 49.45, 114.84 -0.98 M-3.4 139.57 C27.8 106.31, 61.57 71.62, 119.98 0.45 M1.5 141.68 C41.96 91.93, 79.7 44.09, 123.81 0.49 M4.11 147.3 C27.36 113.81, 51.11 82.16, 126.05 -2.77 M-0.46 145.63 C34.19 103.76, 68.93 63.9, 125.73 -0.75 M1.65 155.2 C39.09 108.32, 78.71 62.1, 132.81 -0.04 M-0.64 151.36 C41.25 105.75, 83.73 57.37, 132.22 0.27 M2.51 160.74 C37.18 113.06, 80.79 63.65, 137.52 -1.19 M0.79 159.01 C44.27 110.41, 85.83 61.59, 137.83 1.35 M3.37 162.21 C42.87 114.64, 77.7 68.34, 141.67 3.04 M-1.41 163.45 C46.13 108.43, 92.14 53.99, 144.58 0.31 M0.83 173.58 C42.43 125.91, 80.05 74.49, 147.09 1.31 M0.18 171.31 C41.91 119.6, 82.82 69.97, 148.09 1.15 M-2.73 175.89 C48.59 124.99, 93.33 69.15, 155.98 3.15 M1.34 175.56 C59.7 108.64, 117.75 40.22, 152.45 -1.34 M-3.01 183.68 C59.16 112.7, 118.88 44.8, 160.86 1.72 M1.14 183.16 C56.37 120.19, 110.59 57.27, 160.38 -1.04 M-0.99 190 C34.5 146.36, 76.02 101.6, 165.08 0.29 M-1.27 190.11 C46.77 136.81, 95.69 83.42, 164.49 0.63 M-2.71 194.26 C60.52 127.38, 118.4 58.8, 172.08 2.78 M0.38 194.84 C68.21 117, 135.87 39.86, 167.95 -1.37 M-0.31 202.41 C57.64 127.91, 122.38 62.15, 173.08 0.02 M0.3 201.11 C52.49 137, 104.91 74.87, 175.25 -1.4 M1.8 207.35 C63.49 140.17, 121.79 70.77, 181.82 -0.11 M0.85 206.98 C37.94 162.96, 78.23 114.85, 180.06 0.78 M2.69 212.56 C44.07 158.45, 93.57 101.92, 184.36 0.31 M-0.04 211.91 C58.78 143.59, 115.79 76.4, 185.66 -1.48 M-1.39 218.71 C48.51 168.22, 92.38 117.01, 191.79 0.33 M1.09 218.27 C38.88 175.98, 79.11 128.33, 189.39 0.32 M0.47 224.49 C69.13 140.03, 148.3 59.38, 197.53 -1.34 M1.45 225.13 C45.63 176.81, 89.39 126.72, 196.21 0.04 M-2.59 233.36 C81.57 143.34, 156.52 54.5, 204.18 -1.9 M1.35 231.53 C78.31 144.09, 154.53 58.12, 200.8 -1 M-1.43 235.31 C60.86 168.82, 114.7 101.2, 206.43 -2.11 M-0.85 237.73 C69.6 160.25, 138.42 80.69, 206.93 0.36 M-0.11 245.83 C45.99 191.2, 89.8 138.54, 210.45 -1.52 M-0.31 243.27 C79.26 153.66, 154.78 65.3, 212.58 1.44 M1.85 248.07 C67.1 168.03, 137.99 88.92, 217.36 -0.28 M0.9 250.87 C46.43 195.49, 95.12 139.86, 217.53 0.14 M-0.04 253.18 C85.11 161.3, 166.08 67.97, 220.01 -0.03 M2.05 253.24 C47.43 194.4, 97.3 138.03, 222.88 1.26 M9.08 253.49 C56.93 193.68, 108.81 132.01, 225.84 -0.28 M7.03 252.05 C62.7 189.32, 120.34 125.23, 227.39 0.31 M13.48 251.77 C75.57 183.3, 139.08 108.98, 231.24 0.66 M12.88 253.39 C69.42 185.17, 125.85 123.09, 232.38 1.04 M15.25 254.56 C83.91 178.18, 153.04 96.72, 238.33 -0.82 M18.37 255.24 C73.81 192.21, 126.86 130.65, 237.61 0.11 M25.58 254.51 C97.29 169.9, 169.8 85.4, 243.55 -2 M24.07 253.41 C106.93 157.3, 187.21 63.76, 243.97 0.75 M26.49 252.92 C84.73 189.65, 141.23 122.42, 247.8 1.76 M27.08 255.24 C114.7 155.53, 203.76 56.53, 248.2 -0.43 M35.98 253.08 C96.56 178.14, 162.24 104.31, 257 -0.47 M32.98 253.48 C102.71 173.95, 170.25 96.48, 254.84 0.77 M39.51 254.16 C103.41 179.82, 166.39 108.82, 262.06 1.93 M39.15 254.51 C125.41 157.05, 209.82 59.95, 259.58 1.32 M45.06 254.67 C106.11 174.86, 173.28 98.27, 266.94 1.32 M44.72 254.14 C96.43 196, 149.02 134.22, 264.55 -0.91 M52.33 251.67 C107.32 183.23, 167.33 113.88, 268.69 -1.87 M50.08 255.1 C108.16 184.52, 167.75 113.71, 269.78 -0.49 M53.89 255.02 C117.15 179.76, 179.52 115.15, 274.76 -1.22 M55.99 253.57 C129.64 165.73, 204.99 78.46, 275.01 -0.54 M58.27 254.31 C147.33 158.28, 232.9 56.65, 282.92 -1.12 M60.42 254 C139.88 161.75, 221.9 66.89, 281.9 -0.64 M64.2 254.59 C131.97 178.42, 196.41 102.79, 287.91 -2.61 M65.81 252.97 C119.08 191.89, 170.75 132.16, 285.1 0.54 M72.88 254.11 C121.68 197.66, 166.92 138.18, 293.67 1.28 M70.42 253.94 C114.8 200.01, 157.65 149.89, 290.6 1.09 M78.41 253.14 C131.86 185.55, 190.35 122.12, 298.38 2.01 M75.61 253.87 C159.75 163.87, 239.02 72.45, 296.05 -1.34 M80.05 253.22 C155.54 170.05, 225.83 82.9, 301.34 1.74 M82.65 252.58 C148.2 176.72, 218.2 96.6, 300.99 -0.18 M88.82 255.19 C170.84 154.78, 256.21 61.75, 309.58 0.61 M86.46 252.78 C172.2 156.4, 257.22 58.31, 308.76 -1.44 M91.27 253.09 C147.98 192.83, 208.65 129.23, 312.38 1.38 M91.27 253.31 C160.02 181.04, 225.68 105.35, 312.47 -0.87 M99.18 253.76 C161.09 181.05, 225.39 110.1, 320.22 2.07 M99.07 254.59 C186.27 150.63, 275.74 50.05, 318.42 -0.06 M102.56 254.52 C165.83 180.96, 226.06 111.25, 323.13 0.65 M103.59 254.49 C175.77 169.7, 248.27 83.47, 324.06 0.22 M108.55 252.01 C190.77 156.9, 270.74 62.03, 329.67 -1.58 M108.46 253.79 C177.2 177.05, 243.74 101.7, 327.93 0.11 M115.99 252.23 C174.16 179.9, 236.37 112.12, 336.01 -0.67 M113.1 254.78 C175.66 184.91, 234.27 116.24, 334.5 -0.76 M116.63 252.41 C206.2 157.17, 296.27 53.21, 337.99 -2.8 M120.07 253.25 C173.23 188.72, 226.41 124.74, 339.89 -0.54 M123.54 251.05 C199.44 168.16, 270.96 87.47, 343.33 1.93 M123.73 253.21 C202.65 164.52, 277.63 76.76, 344.83 0.77 M129.21 251.36 C194.36 177.01, 263.46 100.85, 350.64 0.6 M130.94 253.51 C173.92 200.12, 218.92 150.04, 350.49 -0.58 M134 255.14 C188.52 186.75, 242.76 123.3, 354.22 1.47 M133.67 254.52 C188.56 193.92, 242.5 131.5, 355.8 -1.07 M141.3 256.15 C185.1 202.17, 232.22 145.9, 359.55 2.54 M139.79 253.51 C216.45 168.93, 293.31 83.26, 360.26 -0.47 M146.09 251.83 C199.13 187.59, 252.85 126.78, 367.73 1.11 M146.2 253 C204.77 188.27, 262.25 120.92, 365.11 -1.02 M150.56 254.94 C195.11 200.71, 242.57 151.7, 371.53 -1.52 M149.67 252.92 C211.64 178.55, 275.9 102.48, 370.13 -0.77 M153.8 254.68 C219.12 179.2, 282.82 102.59, 378.19 -2.07 M156.14 254.07 C228.28 166.62, 301.33 84.41, 375.51 1.1 M158.75 253.64 C246.39 159.24, 324.37 67.8, 383.93 -1.35 M161.33 254.06 C223.54 176.71, 287.17 104.51, 381.32 0.21 M167.96 255.07 C245.34 165.69, 323.16 73.51, 385.99 -0.88 M166.09 252.71 C258.46 152.03, 343.99 51.01, 386.71 0.45 M168.95 251.37 C244.58 172.76, 313.39 87.13, 389.41 1.82 M170.46 253.41 C216.77 204.17, 260.03 152.84, 392.05 -0.85 M178.51 254.46 C252.83 163.02, 331.63 75.1, 397.57 0.42 M178.28 252.31 C233.47 189.44, 288.12 126.76, 398.11 0.58 M179.52 251.94 C251.67 178.14, 317.73 98.63, 402.83 0.69 M183.16 253.18 C251.62 174.08, 319.4 97.15, 402.87 1.11 M186.85 253.63 C272.58 153.57, 355.15 59.6, 409.29 2.28 M186.55 253.91 C248.77 184.3, 307.86 114.35, 408.75 0.01 M194.91 253.12 C256.93 181.21, 323.15 106.53, 412.79 -1.93 M191.76 253.24 C270.19 170.33, 345.28 84.85, 414.01 0.74 M200.45 252.71 C273.62 171.48, 345.24 88.05, 418.18 -0.91 M197.85 253.49 C268.23 179.39, 335.17 102.27, 420.03 0.27 M204.05 251.98 C260.05 188.29, 320.36 127.24, 424.73 1.49 M204.4 253.78 C252.52 199.96, 299.81 145.55, 422.67 1.1 M211.28 251.13 C271.64 189.86, 327.87 121.47, 427.3 0.73 M208.04 252.76 C297.55 154.09, 385.35 53.21, 430.34 0.55 M212.71 255.71 C288.38 166.79, 360.88 83.11, 433.99 1.64 M215.4 252.63 C282.32 175.86, 350.6 96.18, 433.79 0.18 M217.37 253.05 C312.45 153.69, 397.7 53.77, 440.42 0.26 M220.71 253.77 C271.25 193.77, 322.53 136.31, 440.39 0.38 M227.35 254.67 C276.82 191.94, 331.68 128.28, 447.37 -0.7 M224.16 253.36 C273.04 198.37, 321.42 140.36, 443.89 -0.97 M228.2 251.19 C305.35 167.03, 380.52 80.28, 451.2 0.8 M231.04 253.51 C297.95 180.71, 361.46 105.71, 450.59 -0.39 M233.54 254.7 C297.64 176.52, 362.26 103.22, 456.15 -0.02 M235.1 254.48 C310.95 161.51, 388.05 71.54, 454.55 -0.98 M243.15 253.72 C303.82 182.3, 362.25 109.6, 459.35 -0.55 M241.94 252.02 C312.01 175.48, 382.52 93.09, 461 -1.57 M244.47 255.57 C317.01 169.21, 387.75 81.27, 468.47 -2.27 M246.94 254.84 C320.08 166.71, 395.89 79.07, 466.99 -0.84 M250.84 252.78 C331.99 164.98, 410.14 75.17, 469.98 -1.24 M249.96 253.1 C308.02 187.88, 367.87 119.57, 470.67 0.82 M257.82 251 C303.68 202.42, 345.74 147.44, 476.98 2.09 M255.36 253.62 C317.41 186.74, 374.28 118.5, 476.74 -1.18 M264.09 253.71 C327.5 179.67, 395.08 106.54, 480.1 -1.64 M261.34 253.25 C332.65 173.94, 398.65 95.48, 483.01 0.77 M266.59 255.59 C344.7 168.22, 413.47 84.4, 485.77 0.39 M266.48 253.04 C308.17 200.02, 354.39 147.45, 487.04 0.36 M272.85 252.65 C320.69 192.81, 368.72 139.99, 490.77 -0.56 M271.95 254.26 C326.74 192.55, 380.93 131.78, 493.7 0.22 M275.21 250.93 C346.54 179.29, 411.11 104.63, 499.6 0.83 M277.99 252.95 C336.31 183.66, 395.46 115.84, 498.13 1.13 M284.61 255.11 C375.61 154.35, 460.36 50.96, 504.41 1.78 M283.37 254.8 C347.69 178.57, 414.94 102.24, 504.15 0.71 M288.76 255.66 C347.61 185.29, 406.79 117.17, 507.75 0.15 M287.27 253.55 C330.93 200.77, 375.4 149.32, 509.9 -1.21 M291.31 255.15 C356.62 183.63, 423.18 109.6, 513.32 -0.89 M294.14 253.91 C370.77 171.27, 444.14 85.54, 512.74 1.44 M296.88 255.42 C344.81 204.88, 388.28 151.76, 521.73 -0.19 M299.42 252.68 C382.59 158.31, 465.96 61.59, 519.2 -0.57 M301.78 251.54 C371.22 169.52, 441.47 92.23, 526.66 0.63 M305.16 253.61 C348.73 196.7, 397.68 143.45, 525.58 -0.78 M311.39 251.33 C352.95 200.54, 394.46 148.32, 532.16 0.6 M308.44 253.9 C395.21 159.87, 478.68 64.89, 530.63 -1.3 M314.72 253.14 C374.26 182.08, 436.02 109.44, 532.68 -1.29 M314.3 253.61 C369.28 187.28, 427.99 120.23, 534.99 -0.69 M317.87 254.62 C401.18 158.97, 483.32 67.12, 539.8 -1.24 M321.46 253.02 C365.17 197.97, 411 144.87, 539.08 2.18 M324.08 251.96 C404.72 159.56, 486.82 69.1, 541.39 8.03 M324.45 253.93 C407.2 161.93, 486.98 68.45, 540.53 5.98 M329.46 254.33 C401.94 170.96, 478.8 82.71, 539.52 13.59 M331.82 254.33 C395.38 177.83, 463.26 100.62, 540.64 12.51 M335.37 255.75 C410.93 172.34, 481.7 88.19, 537.47 18.72 M335.54 255.01 C402.58 175.89, 467.34 98.79, 539.86 19.02 M344.22 254.96 C379.97 205.4, 424.72 153.31, 538.44 28.06 M340.42 254.26 C418.05 165.42, 494.05 76.96, 539.88 26.79 M349.6 254.83 C408.15 183.32, 476.26 107.04, 539.06 30.66 M347.2 254.71 C400.2 189.94, 456.18 126.6, 538.09 32.66 M354.6 254.86 C419.96 176.54, 486.08 100.74, 541.09 39.96 M350.9 252.11 C400.25 197.89, 449.4 137.6, 540.21 36.02 M356.38 255.71 C398.64 210.66, 435.19 166.79, 541.87 45.35 M358.59 254.08 C403.82 197.74, 452.2 144.91, 539.45 43.01 M365.27 251.34 C430.51 176.66, 493.84 101.11, 540.23 53.03 M363.94 253.76 C412.48 191.17, 467.6 127.74, 538.21 49.85 M370.1 252.35 C417.46 199.6, 466.46 137.76, 542.5 56.45 M368.35 254.71 C412.25 201.22, 456.12 149.71, 539.58 54.73 M375.25 254.26 C411.94 204.42, 451.96 162.17, 536.91 61.88 M372.74 254.13 C409.1 212.02, 444.12 167.85, 538.14 61.13 M381.67 250.23 C411.21 212.98, 447.25 174.62, 537.91 69.07 M377.81 252.22 C434.42 188.53, 491.26 119.76, 539.64 66.98 M386.34 251.55 C431.86 196.86, 477.29 143.86, 537.77 75.43 M384.59 255.49 C448.18 183.45, 507.33 114.3, 538.91 74.66 M388.37 254.74 C451.74 186.1, 510.01 115.58, 538.45 82.14 M388.1 252.29 C420.47 216.08, 454.01 176.52, 539.9 79.94 M392.39 251.82 C432.19 211.51, 469.3 165.94, 538.13 88.28 M394.81 252.99 C423.77 220.75, 452.68 185.78, 539.61 85.07 M402.1 249.99 C437.21 205.27, 479.41 167.97, 537.76 91.19 M400.03 254.79 C447.25 198.17, 500.46 140.26, 538.75 91.93 M402.33 255.97 C437.29 217.38, 465.74 189.11, 540.67 100.48 M405.57 254.96 C443.41 210.57, 479.8 169.42, 538.74 97.44 M407.97 253.35 C461 195.1, 510.57 132.54, 542.09 107.51 M410.43 252.65 C451.22 212.93, 487.55 168.14, 538.97 103.85 M412.22 256.98 C445.36 220.77, 470.48 191.58, 541.5 112.06 M415.13 252.84 C442.91 219.95, 472.58 189.02, 540.98 111.39 M420.96 253.66 C458.13 208.65, 504.84 164.25, 536.58 118.64 M422.87 253.65 C464.81 206.36, 507.98 153.27, 540.56 116.7 M427.28 252.4 C461.5 210.01, 505.18 158.6, 538.49 119.19 M424.88 252.86 C467.55 210.59, 507.21 165.79, 541.39 124.59 M434.48 252.6 C452.91 222.32, 472.59 195.9, 538.58 126.06 M432.71 255.01 C473.44 209, 515.98 162.1, 538.5 127.64 M436.78 256.16 C472.23 205.21, 515.54 162.99, 537.14 136.07 M436.01 254.45 C469.65 218.75, 500.09 181.58, 540.01 133.23 M442.6 251.36 C475.49 216.88, 504.86 174.64, 542 139.2 M442.78 254.27 C470.9 220.05, 500.96 185.89, 538.72 143.23 M447.29 256.94 C481.92 218.01, 513.16 176.9, 536.53 150.87 M449.11 253.4 C472.18 224.7, 494.84 201.7, 541.17 145.34 M456.4 250.09 C486.99 212.84, 525.01 172.07, 535.73 156.2 M451.43 253.48 C487.77 215.13, 521.19 173.15, 540.62 152.25 M458.39 250.42 C490.66 219.04, 520.06 186.55, 536.75 158.75 M456.26 254 C477.75 226.95, 499.94 204.9, 540.7 157.46 M463.95 255.98 C484.96 238.77, 495.24 213.43, 539.69 168.51 M464.48 255.17 C486.63 227.83, 504.94 204.57, 541.13 166.24 M470.67 255.26 C486.58 237.7, 500.77 216.12, 538.2 170.65 M469.05 253.03 C494.77 222.27, 519.05 193.56, 541.29 171.38 M470.35 251.19 C492.15 230.76, 502.93 212.88, 543.47 173.79 M475.28 254.38 C490.07 235.57, 508.33 216.36, 541.32 176.48 M477.7 257.13 C487.66 238.97, 504.02 220.05, 536.29 186.23 M478.57 251.8 C496.33 232.75, 516.13 209.11, 539.09 183.15 M481 257.65 C497.48 238.03, 517.38 217.84, 537.64 192.72 M484 255.4 C496.71 241.86, 507.36 227.84, 541.8 190.77 M490.06 256.71 C500.37 243.12, 515.8 224.59, 541.43 198.42 M491.39 252.07 C506.83 234.18, 523.88 216.77, 539.77 195.54 M496.3 254.02 C512.01 233.07, 521.26 221.48, 537.12 205.71 M496.3 252.76 C506.36 238.69, 520.84 227.14, 537.99 202.15 M503.32 253.67 C515.31 238.15, 525.91 218.28, 541.71 206.38 M501.61 252.16 C511.94 241.4, 520.69 231.92, 541.17 207.1 M507.67 252.23 C515.16 242.55, 522.8 229.77, 535.81 213.94 M507.34 255.76 C512.15 244.67, 519.58 236.93, 538.78 213.9 M514.07 254.68 C517.56 248.44, 527.53 235.41, 542.2 216.3 M510.82 254.84 C519.05 242.38, 529.71 229.21, 540.63 220.86 M516.19 254.46 C526.88 246.46, 536.02 235.94, 542.62 227.83 M516.48 253.44 C526.59 242.04, 534.39 231.16, 538.62 228.07 M519.88 257.41 C522.75 250.34, 533.54 244.7, 540.32 234.08 M520.09 255.4 C525.94 246.57, 534.55 241.96, 538.33 233.13 M523.93 253.86 C531.58 248.61, 528.57 245.48, 536.13 240.05 M526.53 255.33 C531.22 247.01, 535.3 243.53, 540.07 238.44 M533.98 251.83 C533.59 248.46, 538.05 248.28, 537.85 245.82 M533.26 253.52 C533.67 251.51, 535.4 248.53, 539.75 245.83" stroke="#ccc" stroke-width="0.5" fill="none"></path><path d="M-1.52 1.06 C153 -1.18, 309.17 -2.76, 538.58 0.75 M-0.7 -0.31 C154.44 2.09, 306.81 1.71, 537.55 -0.5 M537.72 0.21 C542.31 79.17, 538.11 151.77, 536.18 251.55 M538.14 1.32 C538.97 95.58, 537.94 187.73, 539.16 250.8 M538.56 250.36 C379.02 253.89, 220.81 251.89, -0.85 250.22 M538.38 252.44 C337.44 254.98, 135.4 254.16, 0.68 251.4 M-2.93 253.94 C1.77 182.4, -2.01 119.15, 1.99 -0.74 M-1.29 251.14 C-1.43 161.99, 0.04 70.53, -1.09 -0.69" stroke="#000000" stroke-width="1" fill="none"></path></g><g transform="translate(624.5614602225163 335.2283646719797) rotate(0 87.8245849609375 28.917611610562602)"><text x="87.8245849609375" y="0" font-family="Virgil, Segoe UI Emoji" font-size="46.26817857690015px" fill="#000000" text-anchor="middle" style="white-space: pre;" direction="ltr" dominant-baseline="text-before-edge">Actores</text></g><g transform="translate(313.7373962402339 178.0303014119467) rotate(0 23.849990844726562 22.5)"><text x="0" y="0" font-family="Virgil, Segoe UI Emoji" font-size="36px" fill="#000000" text-anchor="start" style="white-space: pre;" direction="ltr" dominant-baseline="text-before-edge">ID</text></g><g stroke-linecap="round" transform="translate(279.2929941813147 139.69698079427093) rotate(0 57.5 57.5)"><path d="M10.21 20.8 C10.21 20.8, 10.21 20.8, 10.21 20.8 M10.21 20.8 C10.21 20.8, 10.21 20.8, 10.21 20.8 M10.58 32.73 C11.5 29.93, 11.1 23.78, 18.82 15.9 M7.22 30.94 C10.89 26.32, 17.26 19.75, 22.03 17.03 M1.68 36.75 C8.31 34.22, 16.39 30.31, 30.72 9.22 M3.02 39.62 C12.22 34.78, 15.64 24.82, 30.67 11.23 M2.49 50.27 C13.01 29.07, 32.85 13.95, 36.36 9.05 M0.52 48.12 C11.32 35.45, 20.96 26.63, 36.27 8.57 M0.2 52.01 C14.91 38.69, 28.08 25.79, 45.58 3.77 M1.89 53.09 C13.81 40, 29.11 25.42, 42.02 7.45 M3.55 56.42 C18.53 45.5, 27.79 37.04, 47.84 4.03 M1.02 59.23 C19.61 41.9, 34.54 26.37, 49.96 3.84 M0.19 67.88 C17.89 52.43, 29.45 33.19, 54.17 7.61 M1.85 64.49 C15.58 50.31, 28.25 33.92, 55.81 3.22 M-0.73 69.93 C23.51 47.01, 45.34 27.18, 63.81 1.27 M1.99 72.35 C18.95 56.62, 29.95 42.4, 60.67 5.36 M5.56 75.8 C15.56 56.69, 33.22 42.09, 68.25 4.41 M3.82 77.35 C24.02 53.56, 45.81 25.97, 68.06 3.08 M2.67 80.42 C24.56 62.37, 38.39 44.64, 68.53 3.93 M6.7 80.01 C29.2 55.53, 47.75 31, 70.17 3.95 M9.85 84.91 C27.14 59.25, 50.01 36.54, 78.56 6.6 M8.82 82.43 C29.3 58.39, 50.01 39.03, 76.26 5.83 M13.86 83.33 C28.95 68.01, 46.73 46.52, 83.2 9.67 M12.02 85.99 C26.9 65.87, 47.06 44.28, 79.67 6.36 M14.37 89.92 C34.13 68.13, 46.52 49.22, 85.49 8.82 M12.2 89.57 C44.08 57.37, 73.11 22.72, 86.07 5.98 M18.6 96.35 C34.26 72.29, 50.13 60.01, 86.75 10.92 M14.98 93.85 C34.53 73.75, 54.1 50.4, 90.59 7.65 M19.36 93.75 C29.21 81.95, 47.16 61.47, 94.49 9.28 M18.7 98.29 C33.33 77.69, 51.42 61.99, 90.7 11.1 M22.29 101.14 C37.83 80.3, 54.62 57.1, 97.78 16.62 M22.72 100.62 C49.05 71.07, 70.61 43.98, 94.56 12.86 M27.36 104.79 C47.81 70.18, 79.55 40.97, 99.95 16.63 M25.86 103.13 C46.9 79.98, 65.09 56.99, 98.78 16.73 M29.35 104.62 C50.44 81.74, 71.21 50.82, 99.84 22.17 M27.92 102.09 C44.63 87.62, 61.01 68, 102.63 19.02 M29.99 103 C58.43 75.72, 81.57 48.28, 105.26 22.54 M30.81 107.62 C58.25 73.66, 86.05 40.9, 102.48 22.88 M37.19 104.73 C55.01 88.98, 66.52 71.91, 108.17 23.49 M34.77 106.56 C60.51 81.41, 86.58 48.9, 108.05 25.17 M37.82 113.04 C64.65 75.7, 93.15 47.14, 105.5 27.19 M40.14 109.57 C64.9 78.07, 91.83 51.02, 108.13 27.59 M44.91 113.62 C53.54 93.51, 68.76 75.75, 113.03 33.76 M43.59 114.07 C63.96 86.96, 85.39 63.57, 109.57 33.1 M47.75 117.08 C59.55 94.3, 78.83 75.78, 110.13 40.75 M45.23 113.76 C64.26 91.66, 79.28 74.05, 110.93 40.43 M55.19 115.46 C72.96 82.86, 94.73 58.75, 114.35 40.4 M52.86 114.13 C66.16 95.25, 80.59 81.42, 114.14 44.35 M57 113.02 C80.34 91.33, 102.48 62.96, 110.18 51.14 M56.34 114.21 C77.05 90.66, 96.32 68.34, 114.2 50.17 M58.5 115.44 C74.05 95.33, 89.96 78.75, 115.01 51.59 M59.27 114.8 C73.74 95.35, 91.85 80.71, 114.16 54.72 M68.54 117.57 C78.94 98.9, 86.26 91.84, 109.12 58.55 M63.92 117.23 C75.05 103.83, 88.95 87.26, 112.14 63.37 M72.25 115.48 C81.63 107.32, 88.37 92.15, 114.31 71.76 M69.01 118.38 C80.45 103.14, 93.26 90.91, 112.92 69.75 M79.49 111.85 C87.36 99.02, 90.27 96.97, 108.65 80.14 M79.12 111.08 C92.02 99.2, 102.33 85.31, 111.72 77.04" stroke="#f699" stroke-width="0.5" fill="none"></path><path d="M35.85 6.72 C43.37 2.91, 52.05 2.07, 60.61 2.02 C69.16 1.98, 79.45 2.22, 87.18 6.45 C94.91 10.68, 102.63 19.5, 106.99 27.42 C111.34 35.35, 112.92 44.75, 113.29 54 C113.66 63.25, 112.9 75.08, 109.22 82.9 C105.54 90.71, 98.13 95.5, 91.21 100.88 C84.29 106.26, 76.02 113.38, 67.7 115.17 C59.38 116.96, 49.51 114.76, 41.29 111.6 C33.07 108.43, 24.81 102.11, 18.39 96.18 C11.97 90.25, 5.61 84.12, 2.77 76.02 C-0.06 67.92, 0.09 56.85, 1.38 47.59 C2.67 38.33, 2.67 28.27, 10.53 20.45 C18.38 12.63, 39.66 3.99, 48.52 0.67 C57.38 -2.65, 63.66 -0.21, 63.67 0.54 M13.81 18.36 C19.18 11.93, 31.5 7.6, 39.96 5.08 C48.43 2.56, 56.42 2.46, 64.58 3.25 C72.74 4.04, 81.28 4.66, 88.93 9.81 C96.59 14.96, 106.35 26.6, 110.51 34.14 C114.66 41.68, 114.1 46.35, 113.86 55.07 C113.61 63.78, 112.77 78.11, 109.05 86.45 C105.32 94.79, 99.48 100.07, 91.48 105.11 C83.49 110.16, 70.53 115.34, 61.07 116.71 C51.61 118.09, 42.15 116.71, 34.72 113.34 C27.3 109.97, 21.68 103.81, 16.53 96.49 C11.38 89.17, 6.66 78.7, 3.81 69.4 C0.96 60.11, -2.04 48.67, -0.57 40.72 C0.91 32.77, 10.11 24.91, 12.67 21.7 C15.22 18.5, 14.05 21.5, 14.75 21.5" stroke="#000000" stroke-width="1" fill="none"></path></g><g transform="translate(33.66664123535156 350.0000000000002) rotate(0 59.68798065185547 22.5)"><text x="0" y="0" font-family="Virgil, Segoe UI Emoji" font-size="36px" fill="#000000" text-anchor="start" style="white-space: pre;" direction="ltr" dominant-baseline="text-before-edge">Nombre</text></g><g stroke-linecap="round" transform="translate(10 300.0000381469729) rotate(0 88.33332061767572 73.76288758313484)"><path d="M16.08 29.87 C16.08 29.87, 16.08 29.87, 16.08 29.87 M16.08 29.87 C16.08 29.87, 16.08 29.87, 16.08 29.87 M6.6 41.27 C17.5 34.04, 15.4 36.06, 26.79 21.96 M11.41 41.79 C17.27 33.81, 24.51 27.49, 31.53 19.97 M5.83 56.29 C17.82 40.58, 25.79 32.34, 42.74 8.71 M3.82 55.27 C14.59 42.27, 29.38 26.03, 42.82 9.25 M10.07 61.76 C10.81 46.75, 19.66 41.59, 50.05 10.27 M6.98 59.34 C19.61 44.41, 31.64 31.1, 48.71 7.73 M9.17 64.51 C14.6 48.43, 30.52 30.78, 53.19 6.89 M4.32 65.59 C24.4 43.23, 48.01 20.11, 57.35 7.81 M8.76 75.8 C22.82 48.41, 44.41 24.45, 62.15 5.16 M5.43 73.2 C18.69 58.87, 31.22 43.34, 63.74 4.42 M4.69 76.48 C31.81 50.3, 52.71 20.06, 71.69 2.02 M3.42 79.1 C31.43 49.34, 56.86 20.21, 72.05 3.98 M2.87 84.22 C31.4 64.17, 47.72 39.72, 78 -0.32 M5.84 86.2 C30.4 54.33, 59.91 21.22, 79.16 0.35 M0.02 93.01 C22.11 71.47, 36.4 54.19, 78.75 6.44 M2.37 91.87 C27.9 68.78, 50.14 45.22, 81.81 0.63 M2.88 93.1 C27.77 75.35, 41.96 55.19, 87.65 4.91 M7.06 96.93 C27.44 71.84, 49.19 48.47, 86.12 2.37 M6.4 102.62 C23.74 77.59, 41.38 57.17, 94.53 0.73 M7.52 98.2 C27.31 76.82, 50.44 51.79, 94.67 3.33 M10.27 101.5 C29.37 73.72, 59.63 45.66, 94.71 1.41 M12.43 103.46 C41.92 70.77, 71.91 38.58, 98.85 1.28 M12.95 109.95 C28.36 80.25, 53.9 63.19, 98.88 5.72 M12.6 106.96 C31.25 80.81, 52.99 57.79, 103.82 4.42 M12.29 107.53 C55.25 73.58, 89.56 31.78, 104.53 0.77 M16.57 109.4 C33.3 88.45, 51.92 65.05, 106.83 5.43 M15.63 111.57 C45.62 80.96, 77.46 46.83, 110.61 3.22 M15.71 113.48 C54.36 72.59, 90.58 31.19, 110.96 3.72 M15.75 121.01 C53.15 74.56, 86.52 41.08, 116.12 4.55 M19.17 116.6 C48.4 84.15, 75.62 50.05, 118.67 3.65 M23.48 123.31 C54.42 78.33, 92.76 38.22, 122.24 1.57 M21.49 122.86 C56.26 80.84, 88.56 43.31, 120.97 6.08 M27.8 127.26 C65.59 79.6, 97.37 37.45, 122.19 5.36 M25.73 124.86 C61.46 82.83, 98.51 36.5, 126.21 6.3 M30.47 127.73 C64.07 89.39, 94.74 46.04, 132.64 10.85 M29.03 125.42 C68.27 78.27, 109.51 31.91, 130.58 8.59 M34.65 125.12 C61.4 94.11, 95.08 56.35, 129.04 13.27 M30.32 130.05 C52.27 105.14, 74.93 82.14, 132.37 11.7 M34.96 127.42 C72.54 89.85, 115.89 41.11, 134.28 15.14 M35.31 130 C75.72 86.16, 114.57 36.7, 135.63 12.83 M39.46 136.17 C57.3 109.33, 81.65 78.71, 140.67 16.83 M37.49 133.24 C66.71 99.31, 95.59 62.24, 139.24 15.18 M43.63 140.47 C72.09 110.95, 96.55 77.94, 142.65 15.51 M39.13 135.44 C74.16 92.58, 112.09 52.65, 144.49 15.88 M44.41 142.98 C80.02 94.49, 124.15 44.93, 150.08 15.89 M44.27 139.02 C81.95 90.44, 122.38 45.71, 147.47 17.82 M46.15 137.94 C86.01 90.95, 127.6 45.05, 153.61 25.03 M47.76 140.09 C71.52 113.82, 95.3 82.98, 151.38 21.33 M51.98 143.63 C83.96 103.21, 120.11 57.23, 155.98 28.78 M49.52 141.97 C82.47 107.61, 116.67 70.8, 152.87 25.72 M57.81 144.91 C92.46 99.42, 133.76 55.43, 154.68 25.05 M55.63 142.74 C81.11 114.05, 108.91 81.93, 155.68 27.52 M62.99 145.94 C80.16 125.15, 98.78 92.67, 160.66 29.57 M59.93 144.92 C92.73 101.42, 128.54 62.47, 160.36 31.21 M64.32 144.7 C89.35 112.85, 122.66 82.78, 158.33 35.63 M65.06 147.01 C95.82 108.69, 126.9 72.71, 159.24 34.03 M66 146.5 C107.1 106.76, 137.41 61.52, 161.49 37.84 M67.41 145.97 C99.37 108.96, 134.4 70.55, 163.41 34.63 M75.03 144.92 C89.03 122.49, 109.62 106.08, 166.75 39.36 M71.51 147.24 C104.36 110.79, 140.71 70.82, 167.1 41.44 M76.49 146.38 C119.04 107.24, 151.74 59.64, 172.79 39.91 M76.32 146.21 C101.78 118.43, 129.18 87.64, 169.96 41.56 M86.91 148.86 C99.93 126.37, 122.01 103.18, 173.1 43.8 M83.57 147.99 C109.42 119.16, 133.38 92.29, 172.8 45.84 M86.26 146.15 C118.64 115.58, 140.49 87.75, 173.92 49.37 M88.82 144.69 C118.85 111.99, 149.51 75.87, 174.5 51.34 M98.64 142.86 C116.47 120.48, 132.91 100.59, 174.93 52.55 M97.05 147.37 C122.16 118.77, 142.95 91.59, 175.75 53.84 M103.54 146.91 C129.92 117.47, 152.47 87.35, 176.56 55.31 M101 143.54 C123.95 119.79, 147.35 93.86, 177.32 57.32 M109.92 144.01 C130.19 117.57, 148.75 96.68, 174.04 64.19 M110.24 144.7 C127.16 116.45, 151.14 92.46, 177.13 65.5 M116.16 145.48 C139.28 113.6, 164.38 86.71, 176.03 71.04 M114.08 143.07 C131.68 125.94, 147.78 105.43, 179.85 67.57 M116.11 142.16 C136.66 130.22, 151.34 109.87, 175.29 74.78 M118.65 142.6 C139.26 121.76, 157.93 98.96, 178.65 72.92 M127.6 138.93 C141.68 124.75, 150.78 112.03, 178.72 83.41 M126.39 138.38 C143.56 120.29, 159.02 101.18, 176.12 82.19 M132.75 137.05 C151.29 122.52, 164.78 102.61, 171.25 93.2 M135.4 136.08 C145.01 122.44, 156.17 109.17, 175.26 91.46 M143.63 129.55 C152.41 116.06, 168.4 108.78, 170.62 99 M148.07 128.26 C154.77 118.61, 168.07 106.67, 173.21 99.53" stroke="#f699" stroke-width="0.5" fill="none"></path><path d="M16.16 29.77 C21.28 21.67, 32.32 15.35, 43.1 10.56 C53.89 5.77, 68.44 2.37, 80.87 1.04 C93.29 -0.28, 106.53 -0.51, 117.65 2.62 C128.78 5.74, 139.07 13.02, 147.61 19.78 C156.16 26.55, 163.9 34.31, 168.93 43.21 C173.96 52.12, 177.6 63.18, 177.77 73.23 C177.94 83.29, 175.23 94.23, 169.95 103.55 C164.68 112.87, 155.02 122.7, 146.13 129.15 C137.24 135.59, 128.02 139.1, 116.61 142.21 C105.2 145.33, 89.83 148.29, 77.66 147.83 C65.49 147.38, 53.43 144.44, 43.6 139.49 C33.76 134.53, 25.76 126.22, 18.67 118.12 C11.57 110.02, 3.65 100.99, 1.02 90.88 C-1.61 80.77, -8.97 72.78, 2.88 57.47 C14.73 42.16, 49.57 5.98, 72.11 -0.99 C94.65 -7.97, 137.82 14.31, 138.12 15.62 M26 21.37 C32.37 13.38, 42.38 7.96, 53.63 4.83 C64.88 1.71, 80.93 1.66, 93.5 2.6 C106.06 3.55, 118.07 6.69, 129.01 10.49 C139.94 14.3, 151.64 18.31, 159.11 25.44 C166.58 32.56, 170.75 43.03, 173.85 53.22 C176.95 63.41, 179.24 76.53, 177.71 86.56 C176.18 96.58, 171.84 104.93, 164.67 113.39 C157.5 121.85, 144.83 132.23, 134.72 137.33 C124.61 142.42, 115.37 142.67, 104.01 143.96 C92.65 145.26, 78.28 147, 66.58 145.08 C54.88 143.16, 43.59 138.41, 33.81 132.44 C24.03 126.48, 13.97 118.13, 7.87 109.3 C1.77 100.46, -2.87 89.65, -2.8 79.44 C-2.72 69.22, 3.52 57.56, 8.33 48.01 C13.13 38.45, 23.3 26.21, 26.05 22.12 C28.79 18.02, 24.16 22.77, 24.8 23.44" stroke="#000000" stroke-width="1" fill="none"></path></g><g stroke-linecap="round"><g transform="translate(375.24826377749037 247.22100907886812) rotate(0 35.38669825037492 61.178094499683425)"><path d="M-2.69 -1.15 C19.27 30.22, 30.08 56.79, 72 118.64 M-0.17 -0.65 C23.57 37.52, 42.38 77.14, 73.46 123.51" stroke="#000000" stroke-width="1" fill="none"></path></g></g><mask></mask><g stroke-linecap="round"><g transform="translate(193.8877929306008 372.4804161505143) rotate(0 126.48645665997145 -2.8197224472987727)"><path d="M-2.1 -1.99 C74.39 -1, 155.01 -0.36, 251.73 -5.24 M0.02 -0.4 C54.09 -2.24, 109.21 -3.83, 255.08 -4.41" stroke="#000000" stroke-width="1" fill="none"></path></g></g><mask></mask><g transform="translate(2281.111297607421 48.33332061767578) rotate(0 23.849990844726562 22.5)"><text x="0" y="0" font-family="Virgil, Segoe UI Emoji" font-size="36px" fill="#000000" text-anchor="start" style="white-space: pre;" direction="ltr" dominant-baseline="text-before-edge">ID</text></g><g stroke-linecap="round" transform="translate(2237.7779388427725 10) rotate(0 57.5 57.5)"><path d="M17.75 15.43 C17.75 15.43, 17.75 15.43, 17.75 15.43 M17.75 15.43 C17.75 15.43, 17.75 15.43, 17.75 15.43 M0.01 39.52 C11.29 31.53, 11.03 23.54, 23.67 11.24 M3.98 39.3 C13.18 28.1, 17.78 17.46, 27.59 11.92 M2.45 47.82 C12.94 31.96, 24.37 19.98, 38.94 3.89 M2.82 45.46 C13.76 32.97, 22.47 22.17, 36.13 8.83 M0.41 50.46 C12.55 40.45, 24.45 26.39, 43.9 6.05 M2.64 50.76 C18.63 36.55, 31.32 21.13, 42.69 3.4 M2.42 58.58 C16.61 40.73, 29.51 26.6, 46.76 4.98 M2.69 56.49 C10.74 45.49, 22.29 32.98, 49.33 7.42 M2.4 64.67 C19.42 47.7, 33.94 24.18, 51.6 4.92 M3 63.38 C18.84 42.79, 38.11 21.6, 52.32 4.8 M-0.93 71.52 C23.46 47.04, 34.86 32.01, 62.13 3.25 M2.72 69.64 C22.1 44.6, 41.66 23.32, 56.91 4.73 M1.26 70.97 C27.13 49, 46.26 24.96, 63.44 6.37 M4.46 74.71 C18.2 54.68, 34.15 40.26, 62.04 6.62 M3.23 76.45 C20.02 59.63, 30.38 43.78, 72.04 4.25 M4.62 76.74 C33.58 47.16, 55.46 18.98, 69.47 3.58 M6.71 84.94 C24.29 61.49, 49.03 40.57, 76.58 5.96 M6.37 83.6 C21.52 63.11, 33.93 48.64, 75.38 6.96 M12.8 84.73 C31.72 58.86, 46.97 41.94, 75.84 9.59 M10.63 85.64 C21.71 71.31, 36.82 51.06, 79.48 5.32 M8.74 93.16 C26.78 70.1, 39.64 48.79, 81.96 6.31 M9.82 90.4 C28.72 74.8, 41.75 57.43, 83.14 9.43 M14.56 93.91 C31.44 69.55, 50.66 52.79, 88.55 13.09 M13.43 92.92 C30.47 73.5, 49.56 51.73, 84.57 10.03 M19.03 92.71 C36.68 76.29, 60.62 49.71, 86.67 16.47 M15.1 96.43 C45.97 61.39, 74.03 30.3, 89.78 10.59 M23.04 98.34 C41.52 73.57, 62.19 49.99, 94.81 14.57 M18.9 98.41 C47.12 67.4, 73.96 39.15, 93.51 14.29 M23.58 98.41 C43.35 72.38, 71.28 51.02, 92.24 19.78 M22.36 99.29 C42.78 79.74, 60.2 57.43, 95.68 15.79 M27.09 102.1 C55.78 72.07, 77.26 40.92, 98.98 18.61 M24.77 102.21 C50.14 77.98, 76.81 48.11, 100.28 17.95 M31.42 102.11 C46.68 90.32, 66.77 66.5, 99.18 24.57 M28.21 108.06 C51.19 81.27, 70.47 54.74, 101.75 21.86 M31.89 108.76 C57.85 81.73, 76.39 55.4, 105.73 29.29 M30.56 110.41 C57.41 81.08, 83.69 48.86, 104.65 26.84 M35.22 111.88 C63.06 86.34, 81.73 54.51, 108.32 30.66 M34.46 110.58 C62.89 76.28, 93.63 44.88, 106.66 31.64 M42.91 113.4 C68.88 81.42, 92.45 50, 112.05 34.18 M37.65 111.08 C64.6 84.59, 89.62 54.41, 108.23 32.78 M45.92 109.03 C58.81 96.39, 76.63 77.76, 112.14 38.13 M42.67 114.42 C71.21 83.64, 97.71 53.84, 110.27 34.7 M48 112.83 C64.25 96.84, 72.5 82.19, 113.27 38.61 M47.21 112.56 C68.73 88.78, 89.73 67.62, 112.47 39.86 M50.28 116.16 C67.22 98.08, 81.78 80.85, 112.89 46.06 M51.69 114.94 C68.38 93.33, 88.08 74.07, 111.68 46.16 M54.69 116.66 C72.96 98.43, 87.67 75.48, 113.14 48.44 M57.67 114.45 C75.41 98.24, 90.75 79.02, 112.75 51.21 M63.25 118.83 C86.05 91.42, 102.94 64.13, 117.69 55.79 M62.13 116.96 C77 98.82, 90.71 81.84, 112.4 57.84 M67.44 112.7 C82.21 95.76, 100.15 75.41, 117.6 65.72 M69.84 117.05 C86.52 96.22, 100.99 76.85, 112.11 64.62 M76.16 118.12 C90.19 98.79, 105.17 86.9, 116.03 70.38 M76.39 115.3 C88.96 96.75, 99.85 84.01, 113.78 69.81 M88.38 107.24 C90.03 102.82, 99.67 88.71, 108.34 77.79 M83.73 109.7 C93.23 103.12, 98.2 93.4, 110.86 77.69" stroke="#f699" stroke-width="0.5" fill="none"></path><path d="M72.91 3.33 C80.83 4.41, 87.8 9.46, 94.32 15.24 C100.84 21.01, 108.96 29.57, 112.02 37.97 C115.07 46.38, 113.83 56.72, 112.64 65.66 C111.44 74.6, 109.53 84.43, 104.84 91.63 C100.15 98.82, 92.11 105.06, 84.5 108.83 C76.9 112.6, 67.94 114.26, 59.22 114.25 C50.5 114.24, 40.42 113.05, 32.19 108.79 C23.96 104.53, 14.97 96.12, 9.85 88.67 C4.72 81.21, 2.59 72.65, 1.44 64.05 C0.28 55.46, 0.25 45.18, 2.94 37.11 C5.63 29.04, 10.57 21.39, 17.56 15.65 C24.56 9.92, 34 4.17, 44.91 2.71 C55.82 1.24, 74.59 5.02, 83.03 6.85 C91.47 8.69, 96.06 13.28, 95.56 13.72 M88.21 8.42 C94.73 12.72, 101.34 21.35, 106.23 29.79 C111.12 38.22, 117.1 49.7, 117.54 59.01 C117.98 68.33, 113.98 77.64, 108.88 85.68 C103.77 93.72, 94.33 102.53, 86.91 107.25 C79.49 111.96, 73.26 113.59, 64.37 113.94 C55.49 114.3, 42.38 112.62, 33.59 109.36 C24.8 106.1, 17 101.19, 11.63 94.4 C6.25 87.6, 3.16 77.2, 1.34 68.6 C-0.48 60, -1.18 50.68, 0.72 42.8 C2.62 34.91, 6.54 28.11, 12.73 21.31 C18.91 14.51, 28.75 5.47, 37.84 2.02 C46.92 -1.44, 58.78 -0.61, 67.22 0.58 C75.65 1.78, 84.5 6.97, 88.45 9.16 C92.39 11.36, 90.81 12.43, 90.89 13.75" stroke="#000000" stroke-width="1" fill="none"></path></g><g transform="translate(2405.5556233723946 233.33340962727885) rotate(0 59.68798065185547 22.5)"><text x="0" y="0" font-family="Virgil, Segoe UI Emoji" font-size="36px" fill="#000000" text-anchor="start" style="white-space: pre;" direction="ltr" dominant-baseline="text-before-edge">Nombre</text></g><g stroke-linecap="round" transform="translate(2370.0001271565743 163.888969421387) rotate(0 103.33332061767578 86.28866274940458)"><path d="M29.57 24.38 C29.57 24.38, 29.57 24.38, 29.57 24.38 M29.57 24.38 C29.57 24.38, 29.57 24.38, 29.57 24.38 M5.4 56.63 C22.26 39.5, 30.5 28.18, 39.19 23.73 M10.76 52.67 C17.03 45.56, 23.63 39.06, 37.39 19.35 M6.09 66.8 C19.71 48.7, 34.91 32.78, 48.47 18.87 M5.51 64.7 C18.2 47.12, 35.53 31.44, 46.51 17.75 M5.54 70.28 C23.3 54.87, 36.49 40.36, 58.73 11.17 M6.1 71.95 C21.28 50.57, 41.56 32.82, 56.44 12.95 M1.54 77.19 C19.93 59.76, 39.06 46.12, 64.49 7.19 M0.36 80.38 C22.94 54.06, 47.6 30.19, 64.19 5.46 M5.42 84.82 C17.8 63.6, 32.31 48.58, 70.6 12.7 M1.81 85.45 C27.85 58.01, 51.37 29.72, 70.19 8.32 M-0.58 88.92 C26.17 66.58, 51.96 39.01, 77.23 5.33 M4.09 90.45 C26.15 64.75, 49.76 37.7, 76.41 6.78 M4.72 95.41 C31.63 70.81, 56.7 43.99, 77.62 3.96 M5.86 97.19 C34.34 63.66, 61.77 30.11, 80.98 6.69 M5.35 100.16 C38.16 62.88, 64.65 29.55, 84.56 8.89 M3.85 100.75 C25.61 77.54, 48.54 51.05, 85.79 5.68 M4.93 104.49 C28.37 75.52, 58.27 50.42, 95.04 4.86 M6.49 107.99 C29.96 81.88, 55.95 51.48, 94.05 7.12 M4.62 113.12 C46.14 69.39, 79.98 27.23, 103.61 4.3 M8.93 110.56 C44.19 73.47, 78.21 33.12, 100.72 6.45 M4.49 116.99 C41.79 69.46, 83.58 28.54, 107.08 2.32 M7.38 118.64 C46.01 74.32, 83.28 33.07, 106.14 5.12 M9.45 118.69 C28.67 91.8, 49.46 75.25, 112.48 0.99 M10.06 121.42 C41.03 87.43, 70.61 55.03, 113.06 1.9 M15.39 123.56 C46.47 87.74, 78.5 54.1, 118.38 3.55 M12.31 125.15 C36.22 96.53, 58.67 67.87, 116.9 6.03 M17.73 130.06 C44.97 98.49, 72.8 71.06, 123.59 5.9 M14.14 126.6 C42.19 92.06, 72.56 61.09, 119.48 3.81 M19.44 130.13 C58.24 78.26, 99.87 28.66, 126.47 5.68 M17.32 128.34 C44.33 100.68, 70.35 69.68, 125.35 6.59 M17.07 131.15 C60.28 87.46, 97.62 48.53, 129.64 5.18 M20.29 131.68 C45.14 101.94, 73.25 71.63, 131.45 4.73 M18.72 137.9 C65.51 89.06, 110.54 38.48, 133.26 10.14 M21.25 137.74 C64.92 81.4, 108.3 29.37, 133.43 5.36 M22.06 142.63 C59.32 103.96, 98.5 58.63, 136.41 4.5 M25.09 140.42 C54.2 109.22, 86.6 75.32, 140 6.18 M24.3 147.01 C62.8 107.32, 102.26 64.34, 142.99 7.85 M26.44 143.4 C65.72 101.6, 103.68 60.74, 147.87 7.86 M32.26 144.17 C58.69 108.47, 91.8 75.32, 153.28 5.53 M28.64 145.12 C67.35 104.94, 106.02 64.66, 150.26 7.2 M33.58 147.15 C60.96 117.19, 95.83 79.79, 155.65 10.77 M32.05 150.34 C65.78 113.5, 98.75 76.9, 153.67 10.18 M34.88 151.44 C83.47 97.85, 123.72 48.01, 153.39 14.97 M37.13 151.56 C78.49 102.84, 116.32 55.41, 157.65 13.35 M43.64 152.48 C70.66 119.2, 96.63 81.86, 156.74 12.03 M39.39 153.6 C74.45 111.34, 111.15 70.11, 159.85 15.06 M44.23 153.87 C86.59 107.95, 128.56 51.97, 166.1 14.22 M42.38 156.79 C84.26 108.8, 123.94 59.6, 164.27 18.41 M50.57 154.43 C78.31 113.87, 113.76 80.21, 169.5 15.56 M47.35 158.99 C82.97 111.34, 126.37 68.02, 167.66 17.55 M48.18 158.63 C92.58 114.87, 131 69.58, 170.5 19.46 M52.28 157.09 C85.31 116.67, 124.07 72.31, 168.47 20.41 M54.12 164.42 C98.6 117.58, 140.45 65.11, 176.2 26.53 M52.91 161.79 C89.5 119.96, 126.48 78.58, 171.86 23.45 M57.01 166.9 C95.19 120.47, 130.94 79.25, 179.31 29.08 M55.61 164.27 C97.35 119.38, 135.06 75.04, 176.72 25.14 M63.03 168.87 C108.89 107.64, 153.97 54.81, 178.07 30.86 M60.56 165.78 C102.41 118.24, 143.31 68.64, 180.69 28.78 M60.6 167.83 C102.14 122.42, 145.27 68.91, 178.98 28.3 M63.27 167.6 C93.22 136.08, 117.63 105.66, 183.76 30.65 M69.05 171.47 C109.14 125.7, 143.38 79.09, 183.38 31.74 M68.34 169.52 C95.53 135.33, 125.34 100.66, 183.94 32.34 M72.54 167.11 C108.74 127.33, 145.75 87.91, 185.57 36.01 M72.34 170.36 C106.45 129.5, 141.48 89.51, 188.37 38.22 M77.55 169.6 C108.37 134.74, 142.99 97.92, 187.37 37.09 M78.35 170.77 C99.25 145.91, 123.9 116.87, 188.85 39.18 M84.06 168.65 C122.59 127.44, 159.72 81.37, 190.15 40.39 M80.06 171.61 C111.97 133.78, 144.98 98.33, 194.9 43.89 M89.63 173.71 C124.27 128.62, 161.69 80.46, 194.91 45.05 M86.96 173.82 C118.13 141.49, 144.05 107.75, 194.81 46.07 M94.07 168.88 C115.48 142.68, 138.65 117.47, 200.15 53.36 M89.87 172.37 C122.67 137.62, 154.49 100.95, 198.53 48.95 M92.73 175.72 C136.73 131.24, 176.17 80.35, 201.29 55.82 M95.35 173.99 C119.03 144.08, 145.14 117.36, 202.09 53.3 M103.17 170.47 C128.11 143.73, 157.49 111.08, 199.99 61.86 M101.35 173.44 C132.32 139.2, 160.74 107.21, 201.93 59.19 M109.22 172.3 C144.55 137.24, 177.27 99.81, 202.1 61.33 M106.18 172.78 C127.68 148.46, 149.96 122.23, 201.82 62.44 M113.57 174.33 C135.74 144.89, 158.9 121.64, 199.73 67.05 M114.23 171.35 C139.58 144.24, 166.56 114.83, 203.94 68.16 M121.18 168.61 C145.33 138.31, 170.1 106.69, 206.55 71.24 M120.28 169.76 C150.74 138.01, 179.27 102.34, 205.2 74.25 M126.56 166.64 C141.7 151.75, 162.43 128.88, 204.44 74.84 M125.81 169.4 C148.25 145.54, 167.47 120.53, 204.87 75.63 M133.74 171.09 C152.68 143.25, 165.65 128.43, 206.88 80.46 M132.01 167.21 C153.73 142.98, 176.83 117.15, 208.98 80.26 M138.35 170.33 C160.7 146.43, 176.56 128.54, 208.88 85.91 M138.81 165.13 C159.47 140.61, 180.04 118.05, 209.24 85.64 M146.3 167.68 C161.94 148.63, 175.89 127.31, 211.01 92.41 M144.55 166.43 C159.91 148.5, 177.46 130.05, 208.08 90.03 M154.85 158.56 C165.42 151.85, 175.47 135.85, 208.15 100.69 M152.13 163.81 C163.85 148.13, 178.13 132.31, 208.41 99.51 M162.44 156.46 C174.55 137.49, 194.99 119.59, 205.95 108.33 M163.74 156.39 C180.48 137.18, 194.02 121.38, 207.04 108.38" stroke="#f699" stroke-width="0.5" fill="none"></path><path d="M103.68 1.74 C116.28 0.53, 133.03 1.91, 145.47 6.01 C157.91 10.12, 169.34 18.63, 178.32 26.37 C187.3 34.12, 194.45 42.07, 199.33 52.47 C204.22 62.87, 207.55 77.48, 207.63 88.78 C207.71 100.08, 204.89 110.7, 199.82 120.26 C194.75 129.81, 187.09 138.56, 177.21 146.1 C167.34 153.64, 153.34 161.31, 140.57 165.51 C127.81 169.72, 113.35 171.01, 100.64 171.35 C87.92 171.69, 76.29 171.73, 64.3 167.55 C52.32 163.36, 38.21 154.73, 28.72 146.25 C19.24 137.76, 12.12 126.76, 7.39 116.66 C2.66 106.55, 0.13 96.06, 0.36 85.6 C0.59 75.13, 3.88 64.06, 8.74 53.86 C13.61 43.66, 19.86 32.27, 29.54 24.41 C39.22 16.54, 49.78 9.97, 66.84 6.65 C83.9 3.33, 116.66 3.13, 131.91 4.47 C147.16 5.81, 158.77 13.25, 158.35 14.68 M45.61 12.03 C55.77 5.33, 72.44 -0.08, 85.3 -1.38 C98.15 -2.68, 109.93 1.7, 122.75 4.25 C135.57 6.79, 150.88 8.02, 162.22 13.92 C173.57 19.82, 183.72 30.1, 190.82 39.63 C197.93 49.17, 202.33 60.25, 204.86 71.16 C207.38 82.07, 209.28 93.94, 205.98 105.1 C202.67 116.27, 192.77 128.95, 185.03 138.17 C177.28 147.38, 170.23 154.69, 159.51 160.39 C148.79 166.09, 133.54 170.39, 120.72 172.39 C107.9 174.39, 94.99 175.28, 82.58 172.38 C70.17 169.48, 56.89 161.43, 46.24 154.98 C35.59 148.52, 26.16 142.33, 18.67 133.67 C11.18 125, 3.93 114.19, 1.29 103 C-1.34 91.81, 0.3 77.93, 2.84 66.52 C5.38 55.11, 9.41 42.98, 16.52 34.54 C23.63 26.09, 39.86 18.74, 45.51 15.86 C51.16 12.98, 48.77 16.26, 50.42 17.24" stroke="#000000" stroke-width="1" fill="none"></path></g><g stroke-linecap="round"><g transform="translate(2246.2363596216815 100.53595051330728) rotate(0 -43.229403491416065 64.2785781506459)"><path d="M0.9 -3.05 C-30.72 36.27, -57.67 74.92, -87.13 131.61 M-0.68 0.29 C-31.98 49.73, -63.29 97.46, -87.35 130.26" stroke="#000000" stroke-width="1" fill="none"></path></g></g><mask></mask><g stroke-linecap="round"><g transform="translate(2375.1253163274114 268.5915357387303) rotate(0 -105.49979309562377 14.078036249972087)"><path d="M1.86 -1.58 C-50.25 9.78, -94.93 11.76, -210.29 29.73 M1.24 1.33 C-64.63 12.13, -130.44 18.45, -212.85 27.91" stroke="#000000" stroke-width="1" fill="none"></path></g></g><mask></mask><g stroke-linecap="round" transform="translate(1125.0404307047515 251.51512273152673) rotate(0 167.00000000000006 111)"><path d="M-0.31 112.36 C-0.31 112.36, -0.31 112.36, -0.31 112.36 M-0.31 112.36 C-0.31 112.36, -0.31 112.36, -0.31 112.36 M1.59 114.34 C7.31 109.04, 7.92 108.11, 12.47 104.26 M2.1 113.33 C4.92 112.31, 6.8 109.4, 13.3 102.72 M9.16 113.2 C15.37 108.27, 22.01 103.35, 29.09 95.84 M7.86 114.1 C11.29 113.19, 14.18 107.2, 25.53 94.64 M12.75 117.14 C14.98 112.69, 23.98 105.58, 33.74 84.7 M11.71 119.99 C14.93 109.22, 21.74 103.84, 38.24 87.63 M10.38 122.14 C25.69 108.37, 30.22 97.96, 53.25 79.96 M14.91 120.91 C22.53 110.53, 30.58 101.62, 49.01 79.62 M15.79 126.56 C26.29 108.92, 41.95 99.63, 60.05 66.17 M17.39 124.95 C28.21 109.16, 37.88 95.26, 64.88 70.97 M16.89 123.21 C36.78 98.34, 58 77.55, 72.17 63.34 M21.36 124.96 C39.76 99.24, 62.1 74.23, 75.59 62.83 M20.54 127.32 C46.02 96.42, 73.7 73.56, 85.14 50.63 M25.19 129.61 C36.31 110.7, 54.72 94.17, 86.57 51.87 M27.77 128.56 C54.87 97.65, 85.29 65.08, 101.44 41.67 M27.54 130.3 C52.26 102.42, 75.24 78.56, 101.34 44.57 M30.56 135.07 C50.2 112.99, 68.98 87, 113.74 36.5 M29.2 132.26 C48.92 108.84, 69.48 87.66, 113.78 36.14 M35.09 133.38 C61.59 103.43, 91.45 69.08, 126.29 24.86 M33.29 133.46 C57.82 102.1, 86.15 71.68, 126.51 28.86 M34.45 140.5 C58.87 102.63, 83.81 75.41, 134.92 21.94 M35.01 135.69 C72.36 100.81, 105.35 63.01, 139.87 18.79 M39.94 139.84 C68.86 107.52, 93.45 75.23, 154.98 8.09 M41.93 139.48 C74.78 98.24, 111.54 55.04, 152.87 10.51 M46.43 140.52 C79.87 101.97, 111.19 60.09, 162.77 4.12 M44.36 138.43 C87.51 89.22, 135.49 35.84, 161.66 3.38 M44.38 141.11 C80.6 103.05, 113.47 64.51, 168.19 -1.18 M48.31 141.91 C75.02 112.29, 100.49 84.49, 169.11 2.1 M47.77 141.32 C89.55 100.71, 127.49 63.55, 173.26 4.58 M52.51 145.8 C92.26 97.99, 133.34 53.2, 172.4 3.3 M51.51 145.35 C95.05 102.73, 133.36 52.07, 180.25 2.76 M54.76 146.78 C100.5 92.04, 149.8 37.53, 176.06 7.95 M54.71 145.81 C90.4 110.06, 123.21 77.25, 178.3 4.9 M56.22 149.31 C93.9 107.82, 127.55 63.42, 179.74 9.51 M57.4 151.75 C91.92 122.71, 115.17 90.01, 183.54 13.01 M59.12 152.63 C95.61 112.94, 129.76 73.22, 183.12 9.27 M67.81 156.66 C102.33 109.11, 142.04 61.7, 190.24 11.49 M63.06 153.75 C95.77 116.22, 127.56 78.34, 186.29 11.27 M67.12 158.47 C90.92 129.07, 120.25 98.53, 191.64 19.22 M66.73 158.5 C113.34 105.1, 161.13 49.11, 191.38 17.35 M72.67 159.55 C94.79 126.49, 116.2 96.01, 195.16 17.51 M72.13 156.43 C98.3 131.4, 121.8 102.43, 194.89 18.12 M71.41 161.94 C107.52 123.58, 145.91 81.53, 195.14 18.09 M75.07 159.17 C124.16 106.54, 174.81 48.35, 197.41 19.98 M79.86 163.14 C127.9 105.1, 171.65 48.17, 204.13 23.13 M78.02 163.12 C120.12 114.11, 164.42 64.89, 199.87 20.09 M84.04 167.82 C103.55 136.08, 132.82 102.01, 201.6 21.26 M83.17 164.19 C111.7 130.5, 139.32 96.5, 205.3 25.44 M84.95 167.11 C127.39 116.09, 174.18 67.08, 205.23 27.53 M82.79 168.11 C120.8 122.63, 160.02 77.68, 207.07 27.74 M89.74 170.55 C132.16 113.5, 182.72 59.82, 211.61 31.43 M87.52 169.35 C118.37 129.08, 153.03 91.31, 210.65 30.52 M92.53 170.13 C125.64 123.95, 167.38 77.6, 211.54 28.88 M92.05 170.2 C135.14 116.25, 185.1 61.47, 213.84 32.09 M97.59 172.29 C123.98 131.68, 166.3 91.38, 218.75 34.25 M95.46 175.69 C129.84 134.59, 163.63 95.15, 216.53 32.53 M100.17 177.88 C139.05 129.44, 175.16 88.64, 221.15 32.35 M98.88 176.67 C129.25 141.05, 160.93 104.96, 220.99 36.69 M101.67 182.21 C126.12 142.61, 157.31 108.46, 225.59 38.41 M101.82 176.75 C128.97 143.64, 163.49 107.11, 221.54 37.23 M106.45 179.02 C150.61 131.56, 193.04 86.83, 225.12 42.11 M103.86 179.32 C129.19 149.04, 153.38 118.5, 228.87 41.57 M105.05 184.48 C150.54 136.13, 190.88 84.29, 227.71 43.57 M108.94 182.55 C132.35 150.98, 161.73 120.9, 231.76 42.93 M111.6 184.47 C157.95 139.96, 195.83 89.28, 231.54 45.34 M111.74 185.67 C136.7 155.12, 161.87 124.47, 233.32 43.28 M111.81 186.28 C144.01 159.6, 177.09 125.23, 237.69 48.41 M114.66 187.65 C144.59 154.88, 174.53 122.24, 236.77 48.41 M114.9 190.41 C157.03 152.85, 186.35 112.35, 241.48 52.2 M116.79 190.02 C149.5 153.64, 177.29 124.65, 241.66 46.85 M119.03 193.79 C161.79 143.19, 205.1 95.7, 245.11 50.59 M120.31 191.08 C167.92 141.07, 210.79 88.83, 241.66 52.95 M126.57 189.76 C156.37 158.02, 192.65 114.19, 249.02 55.88 M126.75 192.92 C154.99 160.2, 182.87 127.04, 248.75 53.82 M124.8 196.16 C158.76 158.24, 195 125.09, 248.55 54.8 M126.73 196.39 C164.64 153.61, 205.67 105.29, 251.02 56.36 M133.19 199.2 C152.75 170.24, 179.68 143.39, 256.58 57.28 M132.21 196.14 C166.32 165.78, 194.6 127.53, 252.25 58.99 M136.18 197.57 C182.31 152.28, 229.95 94.19, 255.57 56.69 M134.25 199.6 C162.72 167.9, 191.89 135.96, 256.93 58.92 M138.35 202.39 C175.73 152.59, 215.23 103.91, 261.56 62.09 M139.25 201.98 C178.79 157.27, 218.14 109.89, 259.31 63.39 M145.25 209.2 C168.19 169.15, 204.82 135.88, 266.78 66.95 M142.71 205.26 C174.17 167.7, 205.24 134.03, 262.98 65.41 M146.62 206 C184.38 161.94, 220.21 121.31, 268.38 69.22 M145.46 205.22 C182.15 164.97, 215.88 122.28, 266.62 66.8 M145.76 208.46 C172.4 174.9, 197.17 148.68, 267.73 71.24 M148.1 209.66 C190.25 158.53, 235.21 111.26, 272.25 69.14 M155.57 207.71 C197.61 163.11, 237.35 116.65, 275.11 75.84 M151.93 213.16 C187.41 168.07, 222.92 126.14, 275 72.78 M154.46 214.04 C202.89 165.52, 241.33 108.21, 277.01 70.24 M155.95 211.84 C197.44 165.15, 237.82 118.42, 275.34 71.87 M155.79 212.19 C190.33 181.33, 221.78 138.73, 280.83 78.13 M159.24 217.59 C181.35 185.49, 204.94 159.09, 280.81 77.35 M159.09 217.34 C209.91 163.6, 253.99 108.54, 282.19 79.62 M161.24 217.08 C189.56 190.63, 215.25 157.75, 282.32 79.91 M162.85 223.12 C211.41 169.4, 256.4 115.65, 285.63 79.26 M163.48 218.79 C212.15 171.02, 256.55 118.28, 287.86 81.06 M171.73 225.55 C208.22 178.11, 245.98 129.54, 287.86 82.05 M169.82 223.94 C199.45 182.76, 232.17 144.62, 290.78 84.05 M178.53 216.58 C212.69 179.06, 240.42 144.48, 290.57 89.41 M181.41 214.99 C222.42 167.65, 261.54 125.94, 291.5 84.94 M191.83 207.7 C213.11 182.29, 237.63 155.48, 299.6 91.2 M193.38 206.3 C231.87 165.08, 268.92 122.25, 297.81 87.57 M204.38 194.27 C232.46 174.62, 256.88 146.91, 297.74 93.73 M208.13 199.47 C238.5 162.41, 270.58 125.32, 298.57 90.54 M222.43 190.85 C240.52 165.73, 269.61 139.15, 299.97 95.74 M217.75 189.6 C254.37 150.73, 288.22 113.51, 304 90.26 M233.82 183.42 C264.13 146.91, 294.66 117.4, 310.21 92.42 M233.04 180.59 C261.4 147.47, 285.71 114.97, 307.4 95.9 M239.94 169.66 C259.56 155.68, 276.97 137.4, 312.56 99.35 M244.56 172.37 C261.68 151.16, 283.9 127.09, 309.42 96.41 M254.41 167.69 C278.48 141.92, 301.43 113.34, 316.07 100.62 M258.21 164.64 C271.77 148, 286.22 131.02, 311.82 99.54 M267.76 156.06 C281.38 140.28, 303.58 119.96, 313.95 104.7 M269 155.9 C280.77 142.74, 291.06 132.98, 317.67 98.81 M278.73 145.76 C293.96 137.48, 303.56 127.08, 320.39 100.53 M281.25 146.41 C292.72 136.15, 302.11 124.09, 321.17 104.52 M290.98 136.23 C298.63 136.91, 310.48 121.78, 321.72 105.46 M294.4 141.24 C305.35 128.07, 312.93 115.63, 323.84 106.75 M304.37 131.31 C311.5 127.98, 318.4 118.94, 329.24 105.31 M307.22 133.19 C311.88 122.83, 320.85 118.65, 328.29 106.37 M319.59 126.93 C318 118.81, 323.17 118.65, 330.45 110.25 M319.51 122.05 C323.46 118.88, 323.56 115.42, 330.5 110 M331.33 114.42 C332.05 113.57, 332.32 113.11, 333.58 112.21 M331.76 114.38 C332.22 113.95, 332.88 113.23, 333.55 112.51" stroke="#fab005" stroke-width="0.5" fill="none"></path><path d="M170.24 -0.21 C211.89 24.27, 250.49 53.47, 335.98 110.65 M169.1 1.49 C216.13 29.36, 265.24 62.18, 333.15 112.76 M337.08 111.92 C296.19 143.67, 252.54 169.11, 165.14 221.73 M335.06 110.72 C285.36 144.52, 238.96 177.66, 166.18 223.43 M165.86 220.99 C127.08 196.29, 88.49 162.55, -3.17 113.33 M166.58 221.52 C133.19 197.12, 96.33 175.13, 1.54 112.44 M-1.98 111 C54.53 78.33, 112.42 39.72, 166.13 -2.75 M-0.72 112.72 C55.29 76.96, 112.52 37.71, 168.03 1.75" stroke="#000000" stroke-width="1" fill="none"></path></g><g transform="translate(1215.4504725138336 340.01512273152673) rotate(0 76.58995819091803 22.5)"><text x="76.58995819091797" y="0" font-family="Virgil, Segoe UI Emoji" font-size="36px" fill="#000000" text-anchor="middle" style="white-space: pre;" direction="ltr" dominant-baseline="text-before-edge">participa</text></g><g transform="translate(2392.2222900390607 462.22234090169286) rotate(0 60.01197814941406 22.5)"><text x="0" y="0" font-family="Virgil, Segoe UI Emoji" font-size="36px" fill="#000000" text-anchor="start" style="white-space: pre;" direction="ltr" dominant-baseline="text-before-edge">Genero</text></g><g stroke-linecap="round" transform="translate(2356.6667938232413 392.77790069580095) rotate(0 103.33332061767578 86.28866274940461)"><path d="M30.56 23.92 C30.56 23.92, 30.56 23.92, 30.56 23.92 M30.56 23.92 C30.56 23.92, 30.56 23.92, 30.56 23.92 M5.57 59.46 C20.93 44.26, 30.77 27.22, 37.03 22.74 M7.7 54.2 C16.57 44.16, 29.37 31.91, 40.02 18.91 M8.68 66.91 C14.75 50.47, 33.17 38.78, 51.01 14.13 M5.2 63.65 C22.02 47.44, 37.14 29.54, 50.78 12.25 M-0.14 73.31 C17.13 60.18, 29.59 38.88, 58.6 7.22 M4.2 72.52 C17.86 54.88, 34.51 36.84, 61.41 6.42 M3.88 79.92 C24.47 57.16, 46.01 31.99, 66.66 6.7 M1.07 81.33 C21.25 57.48, 39.97 36.61, 64.81 5.49 M0.33 85.64 C24.93 60.69, 48.65 32.23, 68.85 6.17 M1.19 88.62 C15.89 71.65, 34.52 52.19, 71.78 5.77 M6.45 93.36 C25.83 69.42, 45.68 39.74, 74.42 9.17 M2.7 92.23 C24.11 68.65, 43.23 44.17, 76.92 3.88 M2.38 96.13 C27.99 63.47, 56.86 33.49, 80.22 8.95 M2.82 98.53 C33.07 64.85, 60.02 29.28, 83.55 3.45 M9.08 102.68 C39.98 68.65, 67.27 35.03, 93.29 5.18 M4.76 102.91 C35.79 66.48, 62.87 28.99, 91.38 2.92 M4.47 110.22 C38.02 63.89, 77.71 25.36, 95.61 -0.02 M6.84 105.56 C35.75 78.52, 63.55 46.01, 94.16 2.5 M10.67 112.33 C40.8 75.9, 63.52 38.82, 100.01 5.15 M6.69 110.43 C37.44 81.03, 64.58 47.69, 104.68 2.42 M10.7 119.08 C39.49 84.09, 63.25 48.49, 111.62 1.94 M11.07 116.27 C42.41 81.17, 72.51 47.03, 109.19 1.71 M11.15 117.71 C34 87.98, 63.91 62.62, 116.39 -0.98 M11.41 120.34 C39.23 88.98, 68.15 57.5, 112.89 3.16 M10.8 120.14 C44.67 91.07, 75.53 57.02, 115.85 6.76 M13.52 124.93 C39.78 90.83, 66.72 59.11, 115.75 2.62 M15.38 124.74 C52.91 91.39, 88.28 48.5, 123.11 0.96 M13.3 126.13 C42.27 96.07, 71.38 63.51, 121.46 3.69 M19.5 133.81 C63.78 78.88, 101.18 28.17, 124.84 0.85 M15.68 130.32 C45.89 100.28, 72.15 65.45, 128.41 2.77 M23.31 137.1 C48.83 101.49, 69.3 75.23, 130.61 3.88 M20.31 132.63 C48.49 100.39, 79.96 67.72, 132.07 2.79 M19.22 133.02 C64.66 85.98, 113.56 38.48, 137.52 4.64 M21.22 137.24 C47.32 103.86, 73.02 75.94, 138.59 3.2 M23.18 137.71 C48.47 112.89, 76.06 82.74, 144.27 5.44 M27.18 141.37 C63.07 91.93, 105.48 44.89, 143.86 5.49 M24.73 146.45 C69.81 91.54, 117.88 33.84, 146.47 4.79 M28.66 143.75 C62.47 101.19, 102.91 60.29, 145.87 8.69 M26.26 142.75 C72.18 99.07, 115.99 56.56, 149.9 7.6 M30.19 144.64 C71.1 97.47, 114.08 47.2, 150.91 10.6 M29.76 151.52 C77.73 102.11, 125.17 41.6, 151.94 12.49 M34.01 150.11 C68.75 105.74, 106.11 65.06, 152.04 10.05 M32.09 155.62 C84.35 101.66, 129.33 41.73, 155.53 13.26 M36.4 151.48 C87.29 95.08, 131.84 39.84, 156 15.4 M39.02 154.37 C68 114.84, 100.87 82.79, 159.16 17.4 M38.72 154.86 C86.41 102.39, 131.88 46.58, 158.29 14.05 M47.24 157.01 C90.38 98.78, 134.07 43.94, 161.56 17.08 M42.38 153.66 C91 103.75, 133.52 55.88, 164.79 18.42 M44.96 158.21 C82.53 127.73, 110.74 86.44, 171.03 19.93 M46.5 159.06 C72.27 129.03, 98.08 100.3, 166.07 19.72 M53.99 160.09 C88.65 119.57, 122.11 75.39, 166.76 23.75 M50.91 161 C76.67 128.84, 103.64 99.67, 171.8 21.7 M51.01 162.95 C84.21 122.13, 121.67 88.49, 175.47 27.52 M54.53 161.98 C76.69 134.34, 102.6 103.24, 172.3 22.62 M60.25 160.28 C84.07 128.79, 113.47 91.06, 173.51 25.92 M56.93 163.02 C94.98 118.18, 134.33 74.95, 177.68 24.78 M63.54 165.26 C96.35 126.59, 133.56 84.44, 178.08 29.84 M61.46 165.17 C93.85 126.87, 125.74 92.09, 178.07 30.03 M61.57 165 C103.4 114.5, 144.92 67.17, 181.27 27.8 M65.49 166.77 C91.37 133.24, 121.89 99.88, 182.64 32.22 M73.3 169.56 C112.23 116.19, 161.17 67.91, 185.42 31.55 M68.78 167.42 C102.96 130.56, 135.93 91.39, 183.96 33.75 M76.54 166.92 C109.79 122.71, 148.76 86, 186.42 36.03 M75.16 170.01 C95.58 141.49, 119.63 114.45, 186.32 36.54 M79.37 172.01 C110.22 131.44, 147.37 94.65, 189.73 43.58 M80.84 168.74 C123.92 121.15, 168.88 70.87, 190.72 41.3 M84.07 166.46 C109.09 142.25, 130.06 111.72, 194.37 48.28 M83.39 167.81 C113.28 136.14, 142.73 105.69, 191.89 42.77 M87.85 170.07 C128.06 123.82, 160.24 87.68, 199.58 44.6 M87.48 171.97 C126.82 129.46, 160.94 87.17, 193.93 45.47 M95.43 171.81 C124.14 143.94, 151.49 111.36, 201.53 47.48 M94.45 172.46 C117.65 137.14, 146.58 105.61, 200.01 50.71 M101.13 172.37 C127.21 136.11, 160.36 95.22, 200.56 52.28 M97.38 172.61 C130.82 137.26, 160.26 102.06, 200.67 51.56 M101.5 171.12 C135.26 132.64, 161.73 100.6, 204.66 56.31 M102.73 169.74 C135.08 134.64, 163.67 100.91, 202.21 57.4 M113.3 172.11 C131.04 136.36, 163.23 107.56, 199.97 63.06 M109.35 172.21 C134.29 142.65, 157.66 113.34, 202.26 61.13 M117.53 168.32 C137.6 142.91, 168.46 109.61, 202.2 71.7 M113.48 170.68 C142.28 139.71, 166.92 107.83, 206.17 67.65 M120.08 168.69 C149.55 138.98, 175.96 100.91, 204.65 72.85 M122.39 168.06 C147.05 143.01, 171.02 113.91, 204.05 72.68 M126.44 167.83 C145.15 150.71, 166 126.21, 204.18 78.56 M126.12 168.32 C154.88 135.06, 186.3 100.77, 205.7 75.72 M131.6 171.55 C161.96 143.09, 186.61 115.41, 211.2 80.32 M132.37 168.95 C160.97 135.18, 192.62 99.72, 207.64 81.02 M135.48 165.84 C153.43 144.36, 175.58 127.14, 212.34 86.29 M138.93 168.97 C163 142.07, 182.68 117.14, 208.78 85.9 M145.57 170.12 C160.15 145.48, 179.65 122.85, 207.87 92.64 M145.29 169.18 C165.52 147.57, 180.8 125.97, 208.8 94.94 M152.81 164.46 C167.51 138.74, 180.86 126.35, 206.85 102.88 M157.56 162.37 C171.67 144.12, 186.03 125.62, 208.35 102.51 M163.89 155.96 C175.17 141.33, 181.95 130.76, 207.27 108.75 M165.78 154.69 C176.95 143.2, 185 131.5, 206.15 108.49" stroke="#f699" stroke-width="0.5" fill="none"></path><path d="M30.38 24.13 C38.47 15.38, 52.19 9.81, 64.14 5.93 C76.08 2.06, 89.2 1.1, 102.04 0.89 C114.88 0.68, 128.71 0.63, 141.2 4.67 C153.69 8.72, 167.36 17.34, 176.98 25.17 C186.6 32.99, 193.99 41.81, 198.91 51.63 C203.84 61.45, 206.2 72.86, 206.51 84.1 C206.81 95.34, 205.94 108.54, 200.73 119.06 C195.52 129.57, 184.83 139.17, 175.25 147.18 C165.66 155.18, 155.12 163.11, 143.21 167.1 C131.3 171.08, 116.93 171.18, 103.78 171.07 C90.63 170.96, 76.53 170.15, 64.32 166.42 C52.1 162.68, 39.82 156.67, 30.51 148.67 C21.19 140.67, 13.72 128.88, 8.43 118.43 C3.13 107.98, -1.06 96.45, -1.26 85.96 C-1.47 75.48, -0.14 66.98, 7.2 55.52 C14.55 44.07, 34.68 24.75, 42.81 17.24 C50.94 9.73, 55.51 9.58, 55.96 10.45 M138.16 7.48 C150.68 10, 166.23 13.63, 175.74 20.81 C185.25 27.99, 190.11 40.34, 195.24 50.57 C200.37 60.8, 205.56 71.6, 206.5 82.19 C207.43 92.79, 204.79 103.64, 200.84 114.15 C196.9 124.66, 191.7 137.29, 182.82 145.25 C173.94 153.21, 160.4 157.23, 147.57 161.9 C134.74 166.57, 119.31 172.21, 105.82 173.27 C92.34 174.32, 78.95 172.1, 66.67 168.25 C54.38 164.41, 41.61 157.7, 32.13 150.18 C22.64 142.67, 14.89 133.16, 9.75 123.18 C4.62 113.19, 2.32 101.25, 1.32 90.26 C0.32 79.27, -0.76 67.21, 3.75 57.24 C8.27 47.27, 18.92 38.57, 28.42 30.44 C37.92 22.3, 49.12 13.85, 60.76 8.42 C72.41 2.99, 84.94 -1.67, 98.28 -2.16 C111.61 -2.66, 133.9 3.63, 140.76 5.45 C147.62 7.27, 140.96 7.19, 139.46 8.74" stroke="#000000" stroke-width="1" fill="none"></path></g><g stroke-linecap="round"><g transform="translate(2348.458853111264 464.14705738586576) rotate(0 -89.47582842787278 -55.43774691883243)"><path d="M2.93 3.35 C-53.52 -36.31, -108.31 -71.08, -181.89 -110.18 M1.27 0.44 C-49.6 -31.29, -101.95 -64.21, -177.51 -114.22" stroke="#000000" stroke-width="1" fill="none"></path></g></g><mask></mask><g stroke-linecap="round"><g transform="translate(1460.1541739851234 359.06181790928036) rotate(0 82.46513524403144 -0.09041113560968483)"><path d="M-0.08 0.28 C23.17 1.76, 56.53 3.7, 75.96 2.7 M1.83 0.26 C30.55 3.34, 59.06 1.16, 79.93 0.75 M80.42 -0.51 C105.36 3.02, 138.78 -3, 162.11 -3.15 M78.01 -0.05 C108.25 2.55, 137.7 2.91, 165.01 2.25" stroke="#000000" stroke-width="1" fill="none"></path></g></g><mask></mask><g stroke-linecap="round"><g transform="translate(983.8877827580746 360.7481163458265) rotate(0 71.83850524266734 1.3475054168946485)"><path d="M-3.22 3.93 C45.11 0.94, 99.49 5.3, 146.56 0.81 M-1.38 0.04 C33.21 -1.92, 62.47 -1.71, 146.9 1.33" stroke="#000000" stroke-width="1" fill="none"></path></g></g><mask></mask><g stroke-linecap="round"><g transform="translate(309.7937349688966 474.4937751921494) rotate(0 63.965727780661695 -52.511479399227966)"><path d="M-2.89 -3.51 C35.59 -28.19, 68.94 -54.26, 127.84 -102.46 M-1.52 -0.34 C36.36 -29.19, 74.58 -58.92, 130.82 -104.68" stroke="#000000" stroke-width="1" fill="none"></path></g></g><mask></mask><g transform="translate(148.2120819091797 515.4545288085942) rotate(0 92.44794464111328 22.5)"><text x="0" y="0" font-family="Virgil, Segoe UI Emoji" font-size="36px" fill="#000000" text-anchor="start" style="white-space: pre;" direction="ltr" dominant-baseline="text-before-edge">id_pelicula</text></g><g stroke-linecap="round" transform="translate(129.99993896484375 458.18186187744163) rotate(0 111.96967315673822 79.21741639172859)"><path d="M10.42 47.48 C10.42 47.48, 10.42 47.48, 10.42 47.48 M10.42 47.48 C10.42 47.48, 10.42 47.48, 10.42 47.48 M8.21 58.53 C17.96 46.47, 20.95 35.25, 34.17 26.8 M6.91 58.26 C12.47 50.07, 17.75 44.33, 32.56 25.12 M-0.92 71.3 C9.59 57.02, 22.74 45.27, 40.91 23.75 M2.52 67.31 C17.45 53.95, 27.53 38.33, 43.33 22.47 M-0.09 76.91 C16.52 62, 26 42.67, 51.1 15.61 M1.21 76.26 C16.94 53.32, 39.09 33.54, 51.6 16.08 M-1.2 84.39 C24.97 54.11, 51.08 22.71, 72.37 6.44 M1.37 81.68 C23.11 59.23, 43.13 36.71, 68.44 5.95 M4.7 89.86 C26.84 63.1, 45.65 35.77, 77.47 5.27 M3.61 87.41 C28.39 57.48, 53.21 28.42, 74.33 6.21 M5.97 92.75 C36.57 57.37, 64.38 26.83, 78.2 1.51 M4.31 93.73 C21.42 71.22, 35.93 54.24, 80.18 5.54 M8.39 97.77 C28.05 75.42, 45.42 47.03, 82.62 4.69 M4.57 96.37 C31.27 65.02, 62.82 32.66, 83.46 3.91 M6.52 103.98 C37.67 64.83, 64.34 29.15, 94.22 3.92 M4.64 100.56 C30.89 70.08, 59.22 36.65, 90.44 4.99 M6.98 105.22 C29.83 81.24, 52.97 55.62, 94.57 1.12 M6.19 106.47 C27.72 80.84, 52.22 53.71, 97.85 2.44 M7.91 111.17 C38.08 77.81, 69.92 38.03, 102.73 0.01 M6.7 111.26 C26.24 90.31, 45.78 65.33, 103.19 1.89 M10.14 111.28 C43.08 76.13, 75.73 43.06, 105.16 3.64 M9.75 114.04 C44.93 77.89, 77.23 39.98, 109.73 3.41 M17.31 115.61 C42.52 88.15, 72.54 50.6, 115.11 3.36 M12.02 117.65 C39.67 87.38, 63 59.66, 112.88 -0.43 M19.84 122.52 C46.61 93.46, 68.58 62.63, 122.59 4.85 M14.35 121.42 C47.1 84.88, 78.03 52.85, 121.16 2.4 M20.24 124.92 C50.54 87.82, 79 50.85, 125.71 4.57 M17.99 124.34 C43.54 96.45, 63.38 74.06, 122.51 0.89 M17.8 126.29 C62.09 75.01, 107.39 28.56, 129.35 7.06 M20.32 126.19 C57.34 86.7, 96.68 42.59, 130 3.24 M27.89 128.66 C47.67 99.63, 71.92 74.53, 131.83 6.68 M25.16 128.41 C47.51 100.52, 68.86 77.22, 135.48 3.66 M26.69 132.65 C60.01 88.88, 97 57.23, 140.93 3.35 M26.45 131.2 C63.27 86.78, 100.95 43.3, 136.61 3.03 M26.43 133.42 C63.14 86.5, 106.16 46.23, 141.83 2.29 M30.57 134.44 C71.3 88.58, 109.97 41.52, 143.77 5.72 M36.83 135.95 C74.22 91.12, 116.94 44.5, 146.52 5.3 M32.69 138.03 C61.07 106.26, 87.78 75.65, 148.53 7.83 M34.34 137.27 C73.42 92.07, 113.38 43.13, 149.04 6.72 M37.07 141.02 C76.05 98.82, 114.58 55.81, 153.83 6.16 M37.55 139.49 C71.6 106.78, 94.6 77.24, 158.92 8.72 M39.46 139.75 C67.48 111.66, 95.48 81.75, 158.45 6.48 M43.13 141.53 C69.07 110.09, 94.78 81.51, 160.47 5.8 M42.04 144.48 C87.09 93.3, 131.22 38.69, 159.29 9.06 M47.21 141.86 C89.29 96.65, 129.22 46.35, 162.04 6.98 M45.77 143.22 C75.4 111.78, 101.03 79.34, 163.64 11.85 M51.33 148.54 C87.84 105.06, 125.07 66.54, 166.13 10.37 M51.37 148.67 C94.88 98.41, 133.27 52.6, 166.27 14.03 M52.48 149.16 C82.93 113.8, 110.85 87.58, 168.67 11.63 M56.38 149.27 C97.27 96.83, 141.87 43.47, 171.75 13.5 M57.1 152.88 C103.78 95.21, 148.7 41.65, 173.02 14 M60.09 152.17 C88.39 116.03, 113.38 87.62, 175.39 17.88 M63.7 151.69 C103.16 109.72, 143.23 66.48, 180.64 13.5 M61.25 153.48 C107.75 101.43, 147.45 55.42, 180.98 18.76 M66.27 157.37 C99.15 118.22, 136.74 74.99, 186.46 20 M68.41 152.31 C90.46 127.69, 114.07 98.44, 183.09 17.69 M72.21 159.04 C115.8 102.66, 154.8 59.48, 188.81 22.66 M68.86 157.2 C101.8 124.87, 131.24 90.75, 188.06 20.72 M74.36 159.35 C101.26 121.48, 130.81 87.44, 192.81 18.97 M75.69 155.43 C97.38 122.23, 124.88 93.45, 192.35 24.32 M80.32 153.28 C118.19 109.84, 154.71 72.98, 191.7 25.46 M80.11 156.74 C111.05 122.78, 142.98 86.89, 194.87 27.23 M85.85 154.88 C120.51 114.96, 158.32 78.99, 193.43 26.49 M83.8 157.11 C107.83 127.61, 134.39 96.09, 194.63 28.1 M92.74 154.74 C130.77 107.27, 171.11 64.11, 196.13 31.72 M87.84 157.2 C119.64 127.98, 149 93.54, 197.11 32.11 M93.6 160.05 C118.29 134.87, 141.09 106.57, 199.96 31.38 M92.46 159.44 C129.28 117.7, 165.04 79.4, 201.21 35.12 M99.12 158.51 C132.51 124.93, 163.93 85.1, 208.58 35.51 M99.32 160.93 C139.96 114.46, 177.64 65.61, 203.63 35.96 M98.79 158.44 C129.17 136.95, 151.22 107.08, 205.08 41.72 M103.21 162.51 C141.05 118.26, 181.33 74, 205.86 41.19 M104.15 160.67 C140.24 117.32, 176.55 76.33, 207.93 42.91 M106.35 161.75 C133.72 134.13, 158.89 105.65, 209.15 41.85 M110.23 157.87 C142.39 130.09, 172.7 95.84, 208.44 50.57 M110.75 161.16 C131.42 135.64, 155.97 111.97, 210.88 45.67 M121.46 164.02 C154.33 116.13, 195.39 77.88, 213.98 50.75 M119.18 158.73 C150.53 122.73, 185.27 82.09, 214.86 50.12 M129.08 157.66 C144.4 136.14, 162.92 111.32, 217.39 51.28 M123.57 160.2 C155.48 124.68, 185.71 88.02, 219.71 50.63 M129.73 158.65 C147.62 133.24, 169.03 111.5, 219.61 59.11 M130.6 156.73 C152.6 134.07, 173.41 113.54, 220.51 58.86 M135.54 154.65 C167.4 125.32, 192.82 95.53, 217.65 59.44 M138.76 156.48 C164.61 128.11, 189.16 99.6, 219.71 62.93 M144.01 154.64 C163.94 133.26, 180.81 113.95, 226.65 66.82 M143.29 155.07 C175.82 122.08, 203.34 87.03, 224.28 63.42 M149.45 153.92 C171.36 130.89, 191.76 101.33, 225.84 66.6 M150.54 153.6 C173.85 131.01, 195.07 107.25, 222.6 67.89 M158.27 150.58 C182.89 126.32, 203.31 103.82, 227.26 74.46 M156.33 152.11 C178.54 130.16, 195.69 110.32, 224.2 75.37 M170.29 148.29 C184.27 130, 200.51 106.33, 227 80.87 M166.23 149.37 C182.72 132, 196.36 112.96, 226.04 81.85 M175.47 143.77 C185.05 127.46, 201.32 114.66, 224.67 88.13 M175.3 143.39 C192.15 125.46, 207.72 108.04, 222.89 90.32 M185.21 143.32 C197.13 126.72, 202.32 115.89, 219.22 97.59 M182.37 140.88 C194.44 124.85, 207.96 114.07, 222.24 98.94 M191.66 139.29 C206.02 124.61, 210.48 115.15, 218.38 108.9 M192.37 134.77 C203.7 122.85, 211.26 112.34, 216.7 105.36" stroke="#f699" stroke-width="0.5" fill="none"></path><path d="M156.41 6.47 C169.09 8.99, 179.58 14.65, 189.43 21.89 C199.28 29.12, 209.45 40.33, 215.51 49.88 C221.58 59.43, 225.55 69.15, 225.81 79.21 C226.07 89.26, 222.56 100.99, 217.07 110.21 C211.59 119.43, 202.99 127.77, 192.88 134.52 C182.78 141.28, 170.09 146.49, 156.43 150.75 C142.78 155.01, 125.71 159.6, 110.96 160.09 C96.21 160.58, 81.25 157.74, 67.93 153.71 C54.6 149.67, 40.97 143.02, 31 135.89 C21.02 128.75, 13.34 120.61, 8.08 110.89 C2.82 101.18, -0.91 88.1, -0.56 77.57 C-0.21 67.05, 4.91 56.59, 10.18 47.75 C15.45 38.91, 21.47 31.72, 31.03 24.53 C40.59 17.34, 53.77 8.58, 67.53 4.6 C81.3 0.61, 98.07 -0.33, 113.62 0.61 C129.17 1.55, 151.69 8.28, 160.83 10.23 C169.96 12.17, 169.26 11.69, 168.42 12.29 M114.14 -1.72 C127.63 -1.91, 142.64 3.63, 156.25 8.53 C169.86 13.43, 185.86 20.16, 195.8 27.68 C205.74 35.19, 210.86 44.34, 215.87 53.61 C220.88 62.88, 226.42 73.08, 225.86 83.28 C225.31 93.49, 219.07 105.76, 212.54 114.85 C206.02 123.95, 196.89 131.43, 186.69 137.88 C176.5 144.32, 164.85 150.05, 151.36 153.5 C137.88 156.95, 119.85 158.57, 105.8 158.56 C91.74 158.55, 79.43 157.92, 67.05 153.44 C54.66 148.96, 41.27 139.7, 31.49 131.68 C21.7 123.67, 13.7 114.61, 8.33 105.33 C2.97 96.04, -0.74 85.58, -0.7 75.99 C-0.65 66.39, 2.61 56.75, 8.61 47.73 C14.6 38.72, 24.73 29.21, 35.29 21.9 C45.84 14.59, 58.52 7.86, 71.94 3.88 C85.37 -0.1, 108.88 -1.85, 115.85 -1.97 C122.81 -2.08, 114.06 1.73, 113.73 3.18" stroke="#000000" stroke-width="1" fill="none"></path></g></svg>